<svg width="61" height="70" viewBox="0 0 61 70" fill="none" xmlns="http://www.w3.org/2000/svg">
<path d="M18.4091 52.2C15.2357 52.2 12.4757 51.6267 10.1291 50.48C7.7824 49.3067 5.9824 47.6533 4.72906 45.52C3.47573 43.3867 2.84906 40.9067 2.84906 38.08C2.84906 34.16 3.5824 30.68 5.04906 27.64C6.5424 24.6 8.55573 22.2533 11.0891 20.6C13.6224 18.92 16.4357 18.08 19.5291 18.08C22.4091 18.08 24.5957 18.8267 26.0891 20.32C27.5824 21.7867 28.3291 23.7333 28.3291 26.16C28.3291 27.7867 28.0357 29.0933 27.4491 30.08C26.8891 31.0667 26.0757 31.56 25.0091 31.56C24.2624 31.56 23.6757 31.3867 23.2491 31.04C22.8224 30.6933 22.6091 30.1867 22.6091 29.52C22.6091 29.28 22.6624 28.84 22.7691 28.2C22.9291 27.4 23.0091 26.76 23.0091 26.28C23.0091 23.8533 21.7157 22.64 19.1291 22.64C17.3691 22.64 15.6891 23.2133 14.0891 24.36C12.4891 25.5067 11.1957 27.2 10.2091 29.44C9.2224 31.6533 8.72906 34.2933 8.72906 37.36C8.72906 40.56 9.6224 43.04 11.4091 44.8C13.1957 46.5333 15.8357 47.4 19.3291 47.4C21.0624 47.4 22.8091 47.1867 24.5691 46.76C26.3557 46.3067 28.3291 45.6267 30.4891 44.72C30.8891 44.56 31.2224 44.48 31.4891 44.48C31.9157 44.48 32.2357 44.64 32.4491 44.96C32.6624 45.28 32.7691 45.6933 32.7691 46.2C32.7691 47.8267 31.8891 49.0267 30.1291 49.8C28.2357 50.6267 26.2624 51.24 24.2091 51.64C22.1824 52.0133 20.2491 52.2 18.4091 52.2Z" fill="#0077B6"/>
<path d="M37 28.4998C37.8333 21.9998 40.3 9.29981 43.5 10.4998C46.7 11.6998 47.5 15.3331 47.5 16.9998C50.6667 15.9998 57.2 14.2998 58 15.4998C59 16.9998 55 25.4998 50 24.4998C46 23.6998 44 26.8331 43.5 28.4998" stroke="#0077B6" stroke-width="4"/>
</svg>
