<svg width="176" height="70" viewBox="0 0 176 70" fill="none" xmlns="http://www.w3.org/2000/svg">
<path d="M18.4481 52.2C15.2748 52.2 12.5148 51.6267 10.1681 50.48C7.82146 49.3067 6.02146 47.6533 4.76813 45.52C3.51479 43.3867 2.88813 40.9067 2.88813 38.08C2.88813 34.16 3.62146 30.68 5.08813 27.64C6.58146 24.6 8.59479 22.2533 11.1281 20.6C13.6615 18.92 16.4748 18.08 19.5681 18.08C22.4481 18.08 24.6348 18.8267 26.1281 20.32C27.6215 21.7867 28.3681 23.7333 28.3681 26.16C28.3681 27.7867 28.0748 29.0933 27.4881 30.08C26.9281 31.0667 26.1148 31.56 25.0481 31.56C24.3015 31.56 23.7148 31.3867 23.2881 31.04C22.8615 30.6933 22.6481 30.1867 22.6481 29.52C22.6481 29.28 22.7015 28.84 22.8081 28.2C22.9681 27.4 23.0481 26.76 23.0481 26.28C23.0481 23.8533 21.7548 22.64 19.1681 22.64C17.4081 22.64 15.7281 23.2133 14.1281 24.36C12.5281 25.5067 11.2348 27.2 10.2481 29.44C9.26146 31.6533 8.76813 34.2933 8.76813 37.36C8.76813 40.56 9.66146 43.04 11.4481 44.8C13.2348 46.5333 15.8748 47.4 19.3681 47.4C21.1015 47.4 22.8481 47.1867 24.6081 46.76C26.3948 46.3067 28.3681 45.6267 30.5281 44.72C30.9281 44.56 31.2615 44.48 31.5281 44.48C31.9548 44.48 32.2748 44.64 32.4881 44.96C32.7015 45.28 32.8081 45.6933 32.8081 46.2C32.8081 47.8267 31.9281 49.0267 30.1681 49.8C28.2748 50.6267 26.3015 51.24 24.2481 51.64C22.2215 52.0133 20.2881 52.2 18.4481 52.2ZM34.59 52.2C32.9367 52.2 31.6167 51.6 30.63 50.4C29.6433 49.2 29.15 47.6267 29.15 45.68C29.15 43.5467 29.6433 41.5333 30.63 39.64C31.6167 37.72 32.9233 36.1867 34.55 35.04C36.2033 33.8667 37.95 33.28 39.79 33.28C40.3767 33.28 40.7633 33.4 40.95 33.64C41.1633 33.8533 41.3367 34.2533 41.47 34.84C42.03 34.7333 42.6167 34.68 43.23 34.68C44.5367 34.68 45.19 35.1467 45.19 36.08C45.19 36.64 44.99 37.9733 44.59 40.08C43.9767 43.1467 43.67 45.28 43.67 46.48C43.67 46.88 43.7633 47.2 43.95 47.44C44.1633 47.68 44.43 47.8 44.75 47.8C45.2567 47.8 45.87 47.48 46.59 46.84C47.31 46.1733 48.2833 45.1067 49.51 43.64C49.83 43.2667 50.19 43.08 50.59 43.08C50.9367 43.08 51.2033 43.24 51.39 43.56C51.6033 43.88 51.71 44.32 51.71 44.88C51.71 45.9467 51.4567 46.7733 50.95 47.36C49.8567 48.72 48.6967 49.8667 47.47 50.8C46.2433 51.7333 45.0567 52.2 43.91 52.2C43.03 52.2 42.2167 51.9067 41.47 51.32C40.75 50.7067 40.2033 49.88 39.83 48.84C38.4433 51.08 36.6967 52.2 34.59 52.2ZM36.03 48.16C36.6167 48.16 37.1767 47.8133 37.71 47.12C38.2433 46.4267 38.63 45.5067 38.87 44.36L40.35 37C39.23 37.0267 38.19 37.4533 37.23 38.28C36.2967 39.08 35.55 40.1467 34.99 41.48C34.43 42.8133 34.15 44.2267 34.15 45.72C34.15 46.5467 34.31 47.16 34.63 47.56C34.9767 47.96 35.4433 48.16 36.03 48.16ZM51.2991 52.2C50.2857 52.2 49.5657 51.6667 49.1391 50.6C48.7391 49.5333 48.5391 47.8267 48.5391 45.48C48.5391 42.0133 49.0324 38.72 50.0191 35.6C50.2591 34.8267 50.6457 34.2667 51.1791 33.92C51.7391 33.5467 52.5124 33.36 53.4991 33.36C54.0324 33.36 54.4057 33.4267 54.6191 33.56C54.8324 33.6933 54.9391 33.9467 54.9391 34.32C54.9391 34.7467 54.7391 35.7067 54.3391 37.2C54.0724 38.2667 53.8591 39.2 53.6991 40C53.5391 40.8 53.4057 41.7867 53.2991 42.96C54.1791 40.6667 55.1657 38.8 56.2591 37.36C57.3524 35.92 58.4191 34.8933 59.4591 34.28C60.5257 33.6667 61.4991 33.36 62.3791 33.36C64.1124 33.36 64.9791 34.2267 64.9791 35.96C64.9791 36.3067 64.8591 37.1467 64.6191 38.48C64.4057 39.5467 64.2991 40.2133 64.2991 40.48C64.2991 41.4133 64.6324 41.88 65.2991 41.88C66.0457 41.88 67.0057 41.2933 68.1791 40.12C68.5257 39.7733 68.8857 39.6 69.2591 39.6C69.6057 39.6 69.8724 39.76 70.0591 40.08C70.2724 40.3733 70.3791 40.7733 70.3791 41.28C70.3791 42.2667 70.1124 43.04 69.5791 43.6C68.8324 44.3733 67.9524 45.04 66.9391 45.6C65.9524 46.1333 64.8991 46.4 63.7791 46.4C62.3657 46.4 61.2857 46.04 60.5391 45.32C59.8191 44.6 59.4591 43.6267 59.4591 42.4C59.4591 42 59.4991 41.6 59.5791 41.2C59.6324 40.6667 59.6591 40.3067 59.6591 40.12C59.6591 39.6933 59.5124 39.48 59.2191 39.48C58.8191 39.48 58.2857 39.9333 57.6191 40.84C56.9791 41.72 56.3391 42.8933 55.6991 44.36C55.0591 45.8267 54.5391 47.3733 54.1391 49C53.8457 50.2533 53.4991 51.1067 53.0991 51.56C52.7257 51.9867 52.1257 52.2 51.2991 52.2ZM84.5022 43.08C84.8489 43.08 85.1155 43.24 85.3022 43.56C85.5155 43.88 85.6222 44.32 85.6222 44.88C85.6222 45.9467 85.3689 46.7733 84.8622 47.36C83.8755 48.56 82.4755 49.6667 80.6622 50.68C78.8755 51.6933 76.9555 52.2 74.9022 52.2C72.1022 52.2 69.9289 51.44 68.3822 49.92C66.8355 48.4 66.0622 46.32 66.0622 43.68C66.0622 41.84 66.4489 40.1333 67.2222 38.56C67.9955 36.96 69.0622 35.6933 70.4222 34.76C71.8089 33.8267 73.3689 33.36 75.1022 33.36C76.6489 33.36 77.8889 33.8267 78.8222 34.76C79.7555 35.6667 80.2222 36.9067 80.2222 38.48C80.2222 40.32 79.5555 41.9067 78.2222 43.24C76.9155 44.5467 74.6889 45.5867 71.5422 46.36C72.2089 47.5867 73.4755 48.2 75.3422 48.2C76.5422 48.2 77.9022 47.7867 79.4222 46.96C80.9689 46.1067 82.3022 45 83.4222 43.64C83.7422 43.2667 84.1022 43.08 84.5022 43.08ZM74.4222 37.28C73.4355 37.28 72.5955 37.8533 71.9022 39C71.2355 40.1467 70.9022 41.5333 70.9022 43.16V43.24C72.4755 42.8667 73.7155 42.3067 74.6222 41.56C75.5289 40.8133 75.9822 39.9467 75.9822 38.96C75.9822 38.4533 75.8355 38.0533 75.5422 37.76C75.2755 37.44 74.9022 37.28 74.4222 37.28ZM111.615 43.08C111.961 43.08 112.228 43.24 112.415 43.56C112.628 43.88 112.735 44.32 112.735 44.88C112.735 45.9467 112.481 46.7733 111.975 47.36C110.828 48.7733 109.575 49.9333 108.215 50.84C106.881 51.7467 105.361 52.2 103.655 52.2C101.841 52.2 100.388 51.5467 99.2947 50.24C98.2014 48.9067 97.4547 47.1067 97.0547 44.84C96.148 45.08 95.188 45.2 94.1747 45.2C93.2947 45.2 92.3214 45.1333 91.2547 45C91.628 46.68 91.9347 48.56 92.1747 50.64C92.4147 52.72 92.5347 54.4267 92.5347 55.76C92.5347 58.64 92.068 60.84 91.1347 62.36C90.2014 63.88 88.9747 64.64 87.4547 64.64C85.5347 64.64 84.1614 63.28 83.3347 60.56C82.5347 57.84 82.1347 53.7333 82.1347 48.24C82.1347 43.12 82.6814 37.9333 83.7747 32.68C84.8947 27.4 86.4147 23.04 88.3347 19.6C90.2814 16.1333 92.4147 14.4 94.7347 14.4C95.988 14.4 96.9614 14.96 97.6547 16.08C98.3747 17.2 98.7347 18.7067 98.7347 20.6C98.7347 26.8667 94.988 33.6933 87.4947 41.08C87.228 43.6933 87.0947 45.9867 87.0947 47.96C87.0947 50.7067 87.188 53.52 87.3747 56.4C87.5614 59.3067 87.868 60.76 88.2947 60.76C89.0947 60.76 89.4947 59.3733 89.4947 56.6C89.4947 54.52 89.348 52.5067 89.0547 50.56C88.788 48.6133 88.4147 46.56 87.9347 44.4C87.908 44.0533 88.0147 43.6133 88.2547 43.08C88.5214 42.5467 88.8414 42.08 89.2147 41.68C89.588 41.28 89.9214 41.08 90.2147 41.08C90.5614 41.08 91.108 41.1067 91.8547 41.16C92.708 41.2133 93.348 41.24 93.7747 41.24C94.7347 41.24 95.7214 41.1067 96.7347 40.84V40.72C96.7347 37.4667 97.148 33.76 97.9747 29.6C98.828 25.44 100.068 21.8667 101.695 18.88C103.348 15.8933 105.308 14.4 107.575 14.4C108.855 14.4 109.855 15 110.575 16.2C111.321 17.3733 111.695 19.0667 111.695 21.28C111.695 23.44 111.295 25.8933 110.495 28.64C109.695 31.3867 108.535 34.0267 107.015 36.56C105.495 39.0667 103.708 41.08 101.655 42.6C101.761 44.4933 102.041 45.84 102.495 46.64C102.948 47.4133 103.615 47.8 104.495 47.8C105.588 47.8 106.548 47.4933 107.375 46.88C108.201 46.24 109.255 45.16 110.535 43.64C110.855 43.2667 111.215 43.08 111.615 43.08ZM93.8947 18.36C93.4147 18.36 92.8147 19.1733 92.0947 20.8C91.4014 22.4267 90.708 24.5867 90.0147 27.28C89.3214 29.9467 88.7214 32.7733 88.2147 35.76C90.348 33.3333 91.988 30.8133 93.1347 28.2C94.2814 25.56 94.868 23.0933 94.8947 20.8C94.8947 19.1733 94.5614 18.36 93.8947 18.36ZM106.695 18.36C106.135 18.36 105.481 19.36 104.735 21.36C104.015 23.3333 103.361 25.84 102.775 28.88C102.188 31.92 101.828 34.8933 101.695 37.8C103.028 36.44 104.161 34.7867 105.095 32.84C106.028 30.8667 106.708 28.88 107.135 26.88C107.588 24.8533 107.815 23.0267 107.815 21.4C107.815 19.3733 107.441 18.36 106.695 18.36ZM129.914 39.72C130.26 39.72 130.527 39.8933 130.714 40.24C130.9 40.5867 130.994 41.0267 130.994 41.56C130.994 42.84 130.607 43.6 129.834 43.84C128.234 44.4 126.474 44.72 124.554 44.8C124.047 47.04 123.047 48.84 121.554 50.2C120.06 51.5333 118.367 52.2 116.474 52.2C114.874 52.2 113.5 51.8133 112.354 51.04C111.234 50.2667 110.38 49.24 109.794 47.96C109.207 46.68 108.914 45.2933 108.914 43.8C108.914 41.7733 109.3 39.9733 110.074 38.4C110.847 36.8 111.914 35.56 113.274 34.68C114.634 33.7733 116.14 33.32 117.794 33.32C119.82 33.32 121.447 34.0267 122.674 35.44C123.927 36.8267 124.66 38.5467 124.874 40.6C126.127 40.52 127.62 40.2533 129.354 39.8C129.567 39.7467 129.754 39.72 129.914 39.72ZM116.794 47.96C117.647 47.96 118.38 47.6133 118.994 46.92C119.634 46.2267 120.06 45.2267 120.274 43.92C119.447 43.36 118.807 42.6267 118.354 41.72C117.927 40.8133 117.714 39.8533 117.714 38.84C117.714 38.4133 117.754 37.9867 117.834 37.56H117.634C116.567 37.56 115.674 38.08 114.954 39.12C114.26 40.1333 113.914 41.5733 113.914 43.44C113.914 44.9067 114.194 46.0267 114.754 46.8C115.34 47.5733 116.02 47.96 116.794 47.96ZM151.911 33.32C153.378 33.32 154.111 33.7867 154.111 34.72C154.111 35.04 154.005 35.48 153.791 36.04C151.631 41.08 149.591 45.1467 147.671 48.24C146.711 49.76 145.845 50.8 145.071 51.36C144.298 51.92 143.418 52.2 142.431 52.2C141.365 52.2 140.565 51.7867 140.031 50.96C139.525 50.1333 139.205 48.7733 139.071 46.88C139.018 46.1867 138.965 45.1467 138.911 43.76C138.085 46.0533 137.325 47.8133 136.631 49.04C135.965 50.24 135.298 51.0667 134.631 51.52C133.991 51.9733 133.218 52.2 132.311 52.2C131.218 52.2 130.351 51.7733 129.711 50.92C129.098 50.0667 128.711 48.72 128.551 46.88C128.231 43.1467 128.071 39.88 128.071 37.08V35.68C128.098 34.7733 128.325 34.16 128.751 33.84C129.178 33.4933 129.871 33.32 130.831 33.32C131.525 33.32 132.031 33.48 132.351 33.8C132.698 34.0933 132.871 34.6 132.871 35.32C132.871 38.3867 133.058 42.3733 133.431 47.28C134.311 45.4133 135.125 43.6267 135.871 41.92C136.618 40.2133 137.485 38.0267 138.471 35.36C138.765 34.56 139.111 34.0267 139.511 33.76C139.938 33.4667 140.431 33.32 140.991 33.32C141.738 33.32 142.298 33.48 142.671 33.8C143.045 34.0933 143.231 34.6 143.231 35.32V41.52C143.231 44.1867 143.245 46.1067 143.271 47.28C144.498 45.1467 145.498 43.2933 146.271 41.72C147.071 40.1467 147.965 38.0267 148.951 35.36C149.245 34.56 149.631 34.0267 150.111 33.76C150.591 33.4667 151.191 33.32 151.911 33.32Z" fill="#0077B6"/>
<path d="M152 28.4998C152.833 21.9998 155.3 9.29981 158.5 10.4998C161.7 11.6998 162.5 15.3331 162.5 16.9998C165.667 15.9998 172.2 14.2998 173 15.4998C174 16.9998 170 25.4998 165 24.4998C161 23.6998 159 26.8331 158.5 28.4998" stroke="#0077B6" stroke-width="4"/>
</svg>
