<svg width="143" height="37" viewBox="0 0 143 37" fill="none" xmlns="http://www.w3.org/2000/svg">
<path d="M3.54578 32.64C3.54578 32.64 3.41245 32.5867 3.14578 32.48C2.87911 32.4 2.58578 32.32 2.26578 32.24C1.97245 32.16 1.74578 32.12 1.58578 32.12C1.15911 32.0133 0.852448 31.7733 0.665781 31.4C0.479115 31.0533 0.439115 30.6667 0.545781 30.24C0.652448 30.1333 0.732448 29.9067 0.785782 29.56C0.839115 29.2133 0.865781 28.9333 0.865781 28.72C0.972448 28.5067 1.03911 28.36 1.06578 28.28C1.09245 28.1733 1.15911 27.9067 1.26578 27.48C1.34578 27.0267 1.47911 26.4 1.66578 25.6C1.87911 24.7733 2.10578 23.8933 2.34578 22.96C2.61245 22.0267 2.86578 21.1333 3.10578 20.28C3.34578 19.4267 3.55911 18.7067 3.74578 18.12C3.95911 17.5333 4.10578 17.2 4.18578 17.12C4.18578 17.12 4.18578 17.08 4.18578 17C4.18578 16.8933 4.18578 16.7867 4.18578 16.68C4.18578 16.68 4.19911 16.56 4.22578 16.32C4.27911 16.0533 4.41245 15.76 4.62578 15.44C4.73245 15.1467 4.82578 14.8267 4.90578 14.48C4.98578 14.1333 5.02578 13.9067 5.02578 13.8C5.13245 13.6667 5.27911 13.3467 5.46578 12.84C5.67911 12.3067 5.87911 11.7867 6.06578 11.28C6.22578 10.8533 6.39912 10.4 6.58578 9.92C6.79912 9.44 6.97245 9.02667 7.10578 8.68C7.26578 8.33333 7.34578 8.16 7.34578 8.16C7.34578 8.05333 7.34578 8 7.34578 8C7.34578 7.97333 7.34578 7.96 7.34578 7.96C7.45245 7.85333 7.70578 7.32 8.10578 6.36C8.53245 5.37333 9.10578 4.10667 9.82578 2.56C9.93245 2.34667 10.0924 2.01333 10.3058 1.56C10.5191 1.08 10.6258 0.786665 10.6258 0.68C11.0258 0.279999 11.4124 0.146665 11.7858 0.279998C12.1858 0.386665 12.5324 0.613332 12.8258 0.959999C13.1458 1.30667 13.3724 1.62667 13.5058 1.92L13.9058 2.56L12.4258 5.44C11.9991 6.18666 11.6258 6.86666 11.3058 7.48C11.0124 8.09333 10.8658 8.45333 10.8658 8.56C10.8658 8.56 10.7991 8.72 10.6658 9.04C10.5591 9.36 10.4258 9.77333 10.2658 10.28C10.1058 10.76 9.94578 11.24 9.78578 11.72C9.49245 12.5467 9.21245 13.24 8.94578 13.8C8.67912 14.3333 8.54578 14.6533 8.54578 14.76C8.54578 14.7067 8.81245 14.6667 9.34578 14.64C9.90578 14.6133 10.5991 14.6 11.4258 14.6C12.2524 14.6 13.0924 14.6 13.9458 14.6C14.8258 14.5733 15.6124 14.56 16.3058 14.56C16.9991 14.5333 17.4791 14.4933 17.7458 14.44L19.8258 14.24L20.9458 10.68C21.1591 9.93333 21.4391 9.02667 21.7858 7.96C22.1324 6.89333 22.4391 5.98666 22.7058 5.24C23.1324 4.01333 23.5858 3.16 24.0658 2.68C24.5458 2.17333 24.9458 1.92 25.2658 1.92C25.3458 1.92 25.4924 2 25.7058 2.16C25.9458 2.29333 26.1858 2.45333 26.4258 2.64C26.6658 2.82667 26.8124 3 26.8658 3.16C27.1858 3.45333 27.3324 3.78666 27.3058 4.16C27.3058 4.53333 27.0924 5.02666 26.6658 5.64C26.2391 6.36 25.8791 7.14667 25.5858 8C25.3191 8.82667 25.0791 9.50667 24.8658 10.04C24.8658 10.36 24.8258 10.6267 24.7458 10.84C24.6658 11.0267 24.5724 11.1733 24.4658 11.28C24.4124 11.3333 24.3058 11.5333 24.1458 11.88C23.9858 12.2267 23.8391 12.5733 23.7058 12.92C23.5724 13.2667 23.5058 13.48 23.5058 13.56C23.5058 13.7467 23.4658 13.9733 23.3858 14.24C23.3058 14.5067 23.2124 14.6933 23.1058 14.8C23.0524 14.96 22.9324 15.36 22.7458 16C22.5591 16.64 22.3458 17.4 22.1058 18.28C21.8658 19.1333 21.6124 19.9733 21.3458 20.8C21.0791 21.6 20.8391 22.2667 20.6258 22.8C20.6258 22.9867 20.5591 23.2267 20.4258 23.52C20.2924 23.7867 20.2258 24.0267 20.2258 24.24C20.1191 24.56 19.9858 24.96 19.8258 25.44C19.6658 25.92 19.5858 26.2267 19.5858 26.36C19.4524 26.9733 19.3058 27.68 19.1458 28.48C19.0124 29.28 18.8924 29.9867 18.7858 30.6C18.7058 31.2133 18.6658 31.56 18.6658 31.64C17.9724 31.72 17.4524 31.6267 17.1058 31.36C16.7591 31.0933 16.4391 30.9067 16.1458 30.8C15.6391 30.5067 15.3324 30.1333 15.2258 29.68C15.1458 29.2533 15.2524 28.7333 15.5458 28.12C15.6791 27.9067 15.8391 27.3867 16.0258 26.56C16.2391 25.7067 16.4524 24.8667 16.6658 24.04C16.8258 23.64 16.9991 23.1333 17.1858 22.52C17.3724 21.9067 17.5458 21.3067 17.7058 20.72C17.8924 20.1067 18.0524 19.5867 18.1858 19.16C18.3191 18.7333 18.4124 18.4933 18.4658 18.44C18.4658 18.3333 18.4658 18.24 18.4658 18.16C18.4658 18.08 18.4658 18.04 18.4658 18.04C18.4124 17.9867 18.1458 17.9467 17.6658 17.92C17.1858 17.8667 16.5724 17.8533 15.8258 17.88C15.1058 17.88 14.3191 17.9067 13.4658 17.96C12.6124 17.9867 11.7991 18.0533 11.0258 18.16C10.7324 18.16 10.3058 18.16 9.74578 18.16C9.21245 18.16 8.83912 18.16 8.62578 18.16C8.33245 18.16 8.07912 18.16 7.86578 18.16C7.67911 18.16 7.58578 18.16 7.58578 18.16C7.53245 18.24 7.42578 18.5067 7.26578 18.96C7.13245 19.4133 6.95912 19.96 6.74578 20.6C6.55912 21.24 6.35912 21.8933 6.14578 22.56C5.95911 23.2267 5.78578 23.84 5.62578 24.4C5.49245 24.9333 5.39911 25.32 5.34578 25.56C5.23911 26.04 5.09245 26.64 4.90578 27.36C4.74578 28.08 4.55911 28.8133 4.34578 29.56C4.15911 30.3333 3.98578 31 3.82578 31.56C3.69245 32.12 3.59911 32.48 3.54578 32.64ZM27.1145 28.72C26.7679 28.72 26.4879 28.6533 26.2745 28.52C26.0879 28.3867 25.8479 28.2 25.5545 27.96C25.0479 27.4267 24.6345 26.8533 24.3145 26.24C24.0212 25.6267 23.9145 25.0933 23.9945 24.64C24.0745 24.4267 24.1012 24.2267 24.0745 24.04C24.0745 23.8267 24.0745 23.72 24.0745 23.72C23.9412 23.5867 23.9012 23.5067 23.9545 23.48C24.0079 23.4267 24.0612 23.3467 24.1145 23.24C24.2745 23.24 24.3279 23.0933 24.2745 22.8C24.2212 22.5867 24.3012 22.1333 24.5145 21.44C24.7545 20.72 25.0745 20.04 25.4745 19.4C25.6345 19.1333 25.8745 18.7867 26.1945 18.36C26.5145 17.9067 26.8612 17.4667 27.2345 17.04C27.6345 16.5867 27.9945 16.2267 28.3145 15.96C28.9812 15.4 29.5945 14.9467 30.1545 14.6C30.7412 14.2533 31.3279 14.0133 31.9145 13.88C32.5012 13.7467 33.1012 13.68 33.7145 13.68C34.3545 13.68 34.8745 13.8933 35.2745 14.32C35.8879 14.5867 36.3145 14.9467 36.5545 15.4C36.8212 15.8533 36.9945 16.44 37.0745 17.16C37.1545 17.96 37.0745 18.9467 36.8345 20.12C36.5945 21.2667 35.9412 22.6 34.8745 24.12C34.2079 25.08 33.5545 25.8267 32.9145 26.36C32.2745 26.8933 31.5679 27.3867 30.7945 27.84C30.2345 28.2133 29.6345 28.44 28.9945 28.52C28.3545 28.6 27.7279 28.6667 27.1145 28.72ZM31.1945 23.84C31.7812 23.3333 32.1945 22.7733 32.4345 22.16C32.7012 21.5467 32.9812 20.8267 33.2745 20C33.3812 19.84 33.4479 19.5733 33.4745 19.2C33.5279 18.8267 33.5412 18.4667 33.5145 18.12C33.4879 17.7467 33.3945 17.5333 33.2345 17.48C32.9945 17.2933 32.7545 17.2533 32.5145 17.36C32.2745 17.44 31.9679 17.6133 31.5945 17.88C30.7945 18.5467 30.0479 19.32 29.3545 20.2C28.6879 21.0533 28.2212 22.1067 27.9545 23.36C27.8745 24.0267 27.9412 24.5333 28.1545 24.88C28.3945 25.2 28.7679 25.2933 29.2745 25.16C29.8079 25 30.4479 24.56 31.1945 23.84ZM41.0067 29.24C40.1001 28.8667 39.4334 28.48 39.0067 28.08C38.6067 27.6533 38.4467 27.28 38.5267 26.96C38.5801 26.8 38.6734 26.6533 38.8067 26.52C38.9401 26.3867 39.2334 26.3333 39.6867 26.36C40.1667 26.36 40.9001 26.48 41.8867 26.72C42.1801 26.72 42.4734 26.7067 42.7667 26.68C43.0601 26.6533 43.3267 26.6133 43.5667 26.56C43.8334 26.5067 44.0467 26.44 44.2067 26.36C44.3401 26.3067 44.3801 26.24 44.3267 26.16C44.2734 26.0533 44.1801 25.9467 44.0467 25.84C43.9401 25.7067 43.8201 25.6267 43.6867 25.6C43.5534 25.5467 43.4334 25.52 43.3267 25.52C43.2734 25.3867 43.1534 25.2533 42.9667 25.12C42.8067 24.9867 42.6067 24.84 42.3667 24.68C41.7801 24.2 41.2467 23.7733 40.7667 23.4C40.2867 23.0267 40.1001 22.7467 40.2067 22.56C40.2067 22.4533 40.2067 22.4 40.2067 22.4C40.2067 22.3733 40.2067 22.36 40.2067 22.36C40.0201 22.36 39.8467 22.1067 39.6867 21.6C39.5267 21.0667 39.4467 20.5867 39.4467 20.16C39.4467 19.6267 39.5534 19.0933 39.7667 18.56C40.0067 18.0267 40.3001 17.52 40.6467 17.04C41.0201 16.56 41.3934 16.1333 41.7667 15.76C42.2734 15.28 42.8067 14.8133 43.3667 14.36C43.9534 13.88 44.5801 13.4533 45.2467 13.08C45.9401 12.7067 46.7001 12.4133 47.5267 12.2C47.9001 12.12 48.3267 12.08 48.8067 12.08C49.2867 12.08 49.6334 12.1467 49.8467 12.28C50.0601 12.1467 50.3267 12.1867 50.6467 12.4C50.9667 12.5867 51.2867 12.8533 51.6067 13.2C51.9267 13.5467 52.1667 13.8933 52.3267 14.24C52.3267 14.56 52.3134 14.96 52.2867 15.44C52.2867 15.8933 52.2601 16.2933 52.2067 16.64C52.1534 16.9867 52.0334 17.16 51.8467 17.16C51.8467 17.16 51.8067 17.1733 51.7267 17.2C51.6734 17.2 51.6467 17.2667 51.6467 17.4C51.6467 17.6667 51.4467 17.9733 51.0467 18.32C50.5401 18.6667 50.0601 18.9467 49.6067 19.16C49.1534 19.3733 48.8067 19.3867 48.5667 19.2C48.4067 19.0933 48.2601 18.9867 48.1267 18.88C47.9934 18.7733 47.8734 18.64 47.7667 18.48C47.7667 18.48 47.7267 18.4267 47.6467 18.32C47.5934 18.1867 47.5667 18.0667 47.5667 17.96C47.5667 17.8533 47.6067 17.76 47.6867 17.68C47.7667 17.5733 47.8067 17.52 47.8067 17.52C48.1801 17.1733 48.4601 16.8533 48.6467 16.56C48.8601 16.2667 49.0067 16.0133 49.0867 15.8C49.1667 15.56 49.2067 15.3733 49.2067 15.24C49.2067 15.08 49.1667 14.9867 49.0867 14.96C49.0334 14.9067 48.9001 14.88 48.6867 14.88C48.5534 14.88 48.2601 14.9867 47.8067 15.2C47.3801 15.4133 46.9267 15.68 46.4467 16C45.9667 16.2933 45.5934 16.56 45.3267 16.8C45.2201 16.9867 45.1401 17.1067 45.0867 17.16C45.0601 17.2133 44.9934 17.24 44.8867 17.24C44.8867 17.1333 44.8201 17.1467 44.6867 17.28C44.5534 17.4133 44.3934 17.6 44.2067 17.84C44.0201 18.08 43.8334 18.3333 43.6467 18.6C43.4601 18.8667 43.3134 19.08 43.2067 19.24C43.1801 19.48 43.1134 19.7067 43.0067 19.92C42.9267 20.1067 42.9001 20.3067 42.9267 20.52C42.9534 20.7867 43.0867 21.04 43.3267 21.28C43.5667 21.52 43.9134 21.8267 44.3667 22.2C45.3001 22.8933 45.9934 23.44 46.4467 23.84C46.9267 24.24 47.2601 24.56 47.4467 24.8C47.6334 25.04 47.7534 25.28 47.8067 25.52C48.2601 26.3467 48.3134 27.0667 47.9667 27.68C47.6201 28.2667 47.0867 28.72 46.3667 29.04C46.1001 29.1733 45.6334 29.2933 44.9667 29.4C44.3001 29.5333 43.5934 29.5867 42.8467 29.56C42.1267 29.56 41.5134 29.4533 41.0067 29.24ZM52.5111 36.4C52.1378 36.5067 51.7511 36.4133 51.3511 36.12C50.9778 35.8267 50.6844 35.4267 50.4711 34.92C50.2844 34.4133 50.2844 33.8933 50.4711 33.36C50.5244 33.2 50.6044 32.9333 50.7111 32.56C50.8178 32.2133 50.8844 31.9067 50.9111 31.64C50.9378 31.4533 51.0178 31.1333 51.1511 30.68C51.2844 30.2533 51.4311 29.8267 51.5911 29.4C51.7778 28.9733 51.9244 28.6667 52.0311 28.48C52.1911 28.2133 52.2978 27.9067 52.3511 27.56C52.4311 27.2133 52.4711 26.9467 52.4711 26.76C52.5244 26.5733 52.5911 26.36 52.6711 26.12C52.7778 25.88 52.8844 25.6933 52.9911 25.56C53.0444 25.3467 53.1244 25.12 53.2311 24.88C53.3378 24.6133 53.4578 24.3867 53.5911 24.2C53.6444 24.0133 53.6844 23.7867 53.7111 23.52C53.7644 23.2533 53.8444 23.1067 53.9511 23.08C53.9778 22.9733 53.9911 22.8667 53.9911 22.76C54.0178 22.6533 54.0711 22.5067 54.1511 22.32C54.2044 22.0267 54.3244 21.6 54.5111 21.04C54.6978 20.48 54.9244 19.8667 55.1911 19.2C55.4844 18.4267 55.6844 17.76 55.7911 17.2C55.8978 16.6133 55.7511 16.24 55.3511 16.08C55.1378 15.9733 55.0044 15.7333 54.9511 15.36C54.8978 14.96 54.9244 14.56 55.0311 14.16C55.1378 13.76 55.2978 13.52 55.5111 13.44C55.7511 13.3333 56.0444 13.2667 56.3911 13.24C56.7378 13.2133 57.0444 13.2133 57.3111 13.24C57.6044 13.24 57.7378 13.2667 57.7111 13.32C57.7111 13.4533 57.7778 13.5333 57.9111 13.56C57.9644 13.48 58.0711 13.6 58.2311 13.92C58.4178 14.2133 58.5911 14.5467 58.7511 14.92C58.9111 15.2933 58.9911 15.5467 58.9911 15.68C58.9378 15.7867 58.9111 15.8533 58.9111 15.88C58.9111 15.88 58.9644 15.88 59.0711 15.88C59.0711 15.88 59.2178 15.8133 59.5111 15.68C59.8044 15.52 60.1111 15.3467 60.4311 15.16C60.7778 14.9467 61.0044 14.7867 61.1111 14.68C61.1111 14.68 61.1778 14.6533 61.3111 14.6C61.4711 14.52 61.6044 14.4267 61.7111 14.32C62.2444 14.1067 62.8178 14.0667 63.4311 14.2C64.0711 14.3333 64.5778 14.5733 64.9511 14.92C65.4844 15.5867 65.8844 16.4133 66.1511 17.4C66.4444 18.3867 66.4044 19.3467 66.0311 20.28C65.9778 20.4133 65.8578 20.64 65.6711 20.96C65.5111 21.2533 65.3511 21.5333 65.1911 21.8C65.0311 22.04 64.9511 22.16 64.9511 22.16C64.3378 23.12 63.6578 23.92 62.9111 24.56C62.1911 25.2 61.4044 25.76 60.5511 26.24C60.2844 26.4267 59.9111 26.6 59.4311 26.76C58.9778 26.92 58.5511 27.04 58.1511 27.12C57.7778 27.2 57.5511 27.2133 57.4711 27.16C57.1778 26.9467 56.9111 26.4933 56.6711 25.8C56.5378 26.1467 56.4044 26.4933 56.2711 26.84C56.1644 27.16 56.0978 27.3733 56.0711 27.48C56.0444 27.6667 56.0178 27.8267 55.9911 27.96C55.9644 28.0667 55.8978 28.16 55.7911 28.24C55.7911 28.24 55.7778 28.2933 55.7511 28.4C55.7244 28.5067 55.6311 28.6667 55.4711 28.88C55.2044 29.6533 54.9911 30.2533 54.8311 30.68C54.6711 31.1333 54.5378 31.4933 54.4311 31.76C54.3511 32.0533 54.2711 32.36 54.1911 32.68C54.1378 33.4 53.9644 34.16 53.6711 34.96C53.4044 35.76 53.0178 36.24 52.5111 36.4ZM58.4711 23.4C58.5778 23.3467 58.7644 23.2533 59.0311 23.12C59.3244 22.9867 59.6444 22.8267 59.9911 22.64C60.3378 22.4267 60.6578 22.2267 60.9511 22.04C61.2711 21.8267 61.4978 21.64 61.6311 21.48C61.8444 21.24 61.9644 21.0533 61.9911 20.92C62.0178 20.76 62.0844 20.5067 62.1911 20.16C62.2711 19.9467 62.3644 19.7067 62.4711 19.44C62.5778 19.1733 62.6711 18.92 62.7511 18.68C62.8578 18.4667 62.8978 18.2533 62.8711 18.04C62.8711 17.8 62.7911 17.6 62.6311 17.44C62.5244 17.4133 62.2711 17.4533 61.8711 17.56C61.4978 17.6667 61.0578 17.88 60.5511 18.2C60.0711 18.52 59.5911 18.9867 59.1111 19.6C58.5511 20.32 58.1778 20.9733 57.9911 21.56C57.8044 22.12 57.7644 22.5733 57.8711 22.92C57.9778 23.24 58.1778 23.4 58.4711 23.4ZM70.8283 28.96C70.1883 28.96 69.6283 28.6267 69.1483 27.96C68.6949 27.2667 68.4149 26.44 68.3083 25.48C68.3349 25.2667 68.3616 24.96 68.3883 24.56C68.4416 24.16 68.4949 23.7467 68.5483 23.32C68.6549 22.8133 68.8016 22.16 68.9883 21.36C69.1749 20.56 69.3749 19.76 69.5883 18.96C69.8016 18.1333 69.9883 17.4267 70.1483 16.84C70.3083 16.2267 70.4016 15.8667 70.4283 15.76C70.5883 15.3867 70.9483 15.2933 71.5083 15.48C72.0683 15.6667 72.5483 16.0667 72.9483 16.68C73.1083 16.8933 73.2016 17.1467 73.2283 17.44C73.2816 17.7333 73.2416 18.16 73.1083 18.72C73.0016 19.28 72.7883 20.1067 72.4683 21.2C72.1749 22.2667 71.9483 23.1333 71.7883 23.8C71.6549 24.44 71.6016 25.12 71.6283 25.84C71.5216 27.0667 71.4149 27.9067 71.3083 28.36C71.2016 28.7867 71.0416 28.9867 70.8283 28.96ZM74.5083 12.36C74.4016 12.44 74.2949 12.48 74.1883 12.48C74.1083 12.4533 73.9616 12.3733 73.7483 12.24C73.5616 12.2133 73.3216 12.0933 73.0283 11.88C72.7616 11.64 72.5216 11.4 72.3083 11.16C72.1216 10.92 72.0283 10.7733 72.0283 10.72C72.0016 10.4533 72.0149 10.0267 72.0683 9.44C72.1483 8.85333 72.2949 8.30667 72.5083 7.8C72.7483 7.26667 73.0683 6.98667 73.4683 6.96C73.5749 6.96 73.8016 7.01333 74.1483 7.12C74.5216 7.22666 74.9083 7.36 75.3083 7.52C75.5216 7.92 75.7216 8.44 75.9083 9.08C76.0949 9.72 76.1083 10.3467 75.9483 10.96C75.8149 11.5467 75.3349 12.0133 74.5083 12.36ZM79.5598 31.4C78.2532 31.3733 77.4132 31 77.0398 30.28C76.6932 29.5867 76.5998 28.7067 76.7598 27.64C76.9198 27.1333 77.0132 26.68 77.0398 26.28C77.0932 25.8533 77.2132 25.5867 77.3998 25.48C77.3998 25.48 77.4132 25.44 77.4398 25.36C77.4932 25.28 77.4798 25.2 77.3998 25.12C77.3998 24.7733 77.5198 24.2933 77.7598 23.68C77.8132 23.52 77.8798 23.3333 77.9598 23.12C78.0665 22.88 78.1198 22.76 78.1198 22.76C77.9865 22.5467 77.9865 22.3733 78.1198 22.24C78.2532 22.1067 78.3865 21.9867 78.5198 21.88C78.6798 21.7467 78.6932 21.6 78.5598 21.44C78.5065 21.3333 78.5732 21.0933 78.7598 20.72C78.9465 20.32 79.1598 19.9067 79.3998 19.48C79.6398 19.0533 79.7998 18.72 79.8798 18.48C79.8798 18.4267 79.9465 18.24 80.0798 17.92C80.2132 17.6 80.3732 17.2267 80.5598 16.8C80.7465 16.3733 80.9198 15.9867 81.0798 15.64C81.2665 15.2933 81.3865 15.0667 81.4398 14.96C81.7065 14.8267 81.5998 14.7333 81.1198 14.68C80.6398 14.6267 80.1332 14.6133 79.5998 14.64C78.7732 14.6133 78.1065 14.5733 77.5998 14.52C77.1198 14.4667 76.7198 14.3467 76.3998 14.16C76.0798 13.7867 76.0398 13.3467 76.2798 12.84C76.5198 12.3067 76.9065 12.0267 77.4398 12C77.7865 11.9733 78.0532 11.96 78.2398 11.96C78.4532 11.96 78.7198 11.9467 79.0398 11.92C79.3865 11.8667 79.9198 11.8 80.6398 11.72L82.6798 11.56L82.7998 10.88C83.0132 10.5333 83.1598 10.3067 83.2398 10.2C83.3198 10.0933 83.3732 9.98667 83.3998 9.88C83.4265 9.74667 83.4665 9.52 83.5198 9.2C83.5198 9.2 83.6398 8.98667 83.8798 8.56C84.1198 8.10667 84.2665 7.64 84.3198 7.16C84.6398 6.62667 84.9198 6.14667 85.1598 5.72C85.3998 5.26667 85.5465 4.98667 85.5998 4.88C86.0532 4.21333 86.4932 3.85333 86.9198 3.8C87.3732 3.74667 87.7998 3.85333 88.1998 4.12C88.4398 4.25333 88.6665 4.42667 88.8798 4.64C89.0932 4.82666 89.2265 5.08 89.2798 5.4C89.3332 5.69333 89.2132 6.08 88.9198 6.56C88.8665 6.66666 88.7865 6.86667 88.6798 7.16C88.5732 7.42667 88.4932 7.65333 88.4398 7.84C88.2798 8.02667 88.0798 8.33333 87.8398 8.76C87.6265 9.16 87.4798 9.57333 87.3998 10C87.1865 10.4533 87.0532 10.7333 86.9998 10.84C86.9465 10.9467 86.8665 11 86.7598 11C86.8132 11.2667 86.9732 11.4 87.2398 11.4C87.5065 11.3733 87.9465 11.3467 88.5598 11.32C89.0665 11.2667 89.4132 11.2133 89.5998 11.16C89.8132 11.08 90.0532 11.1067 90.3198 11.24C90.4532 11.4267 90.5198 11.7067 90.5198 12.08C90.5465 12.4267 90.5065 12.7733 90.3998 13.12C90.2932 13.44 90.1465 13.64 89.9598 13.72C89.8265 13.72 89.5465 13.8 89.1198 13.96C88.7198 14.0933 88.2132 14.1733 87.5998 14.2L85.4798 14.4L84.7998 15.76C84.6132 16.1067 84.4532 16.4267 84.3198 16.72C84.1865 16.9867 84.0932 17.1467 84.0398 17.2C84.0398 17.36 83.9465 17.6 83.7598 17.92C83.5998 18.24 83.4265 18.5867 83.2398 18.96C83.0798 19.4133 82.8932 19.8267 82.6798 20.2C82.4932 20.5733 82.3998 20.76 82.3998 20.76C82.2932 20.76 82.2398 20.84 82.2398 21C82.3732 21.32 82.3332 21.56 82.1198 21.72C81.9865 21.8 81.8665 21.92 81.7598 22.08C81.6798 22.2133 81.6398 22.28 81.6398 22.28C81.7465 22.3867 81.7598 22.52 81.6798 22.68C81.6265 22.84 81.5465 23.0133 81.4398 23.2C81.4398 23.4133 81.3732 23.72 81.2398 24.12C81.1332 24.52 81.0132 24.8933 80.8798 25.24C80.9065 25.72 80.9332 26.0267 80.9598 26.16C80.9865 26.2933 81.0532 26.3467 81.1598 26.32C81.2932 26.3467 81.4798 26.3467 81.7198 26.32C81.9598 26.2933 82.1332 26.28 82.2398 26.28C82.6398 26.0933 82.4532 27.0267 81.6798 29.08C81.2532 29.7467 80.8265 30.2933 80.3998 30.72C79.9732 31.1733 79.6932 31.4 79.5598 31.4ZM91.442 28.28C91.122 28.36 90.762 28.2667 90.362 28C89.962 27.7333 89.602 27.4 89.282 27C88.962 26.6 88.762 26.24 88.682 25.92C88.5754 25.36 88.602 24.68 88.762 23.88C88.9487 23.0533 89.2554 22.1867 89.682 21.28C90.1087 20.3467 90.642 19.44 91.282 18.56C91.922 17.6533 92.642 16.84 93.442 16.12C94.242 15.4 95.1087 14.84 96.042 14.44C96.442 14.2267 96.722 14.0933 96.882 14.04C97.042 13.96 97.202 13.96 97.362 14.04C97.522 14.0933 97.802 14.2267 98.202 14.44C98.5754 14.5467 98.9487 14.68 99.322 14.84C99.722 14.9733 100.069 15.24 100.362 15.64C100.575 16.04 100.735 16.44 100.842 16.84C100.949 17.24 101.042 17.6933 101.122 18.2C101.335 18.8667 101.415 19.3067 101.362 19.52C101.309 19.7067 101.229 19.8533 101.122 19.96C100.909 20.2267 100.855 20.36 100.962 20.36C100.962 20.36 100.949 20.4133 100.922 20.52C100.922 20.6 100.869 20.7333 100.762 20.92C100.575 21.5067 100.429 22.0667 100.322 22.6C100.242 23.1067 100.255 23.56 100.362 23.96C100.575 24.5467 100.855 24.8933 101.202 25C101.575 25.1067 102.055 24.8667 102.642 24.28C102.935 24.0667 103.269 23.9333 103.642 23.88C104.015 23.8 104.202 23.8667 104.202 24.08C104.202 24.08 104.242 24.12 104.322 24.2C104.402 24.2533 104.495 24.28 104.602 24.28C104.735 24.28 104.789 24.4133 104.762 24.68C104.735 24.92 104.682 25.2 104.602 25.52C104.522 25.84 104.415 26.1067 104.282 26.32C103.882 26.72 103.682 26.9867 103.682 27.12C103.682 27.12 103.629 27.1733 103.522 27.28C103.442 27.36 103.295 27.4933 103.082 27.68C102.602 27.9733 101.989 28.12 101.242 28.12C100.522 28.12 99.962 27.9733 99.562 27.68C99.162 27.3867 98.762 27.0267 98.362 26.6C97.9887 26.1733 97.7487 25.7733 97.642 25.4L97.442 25L96.282 25.76C95.9887 26.0533 95.7754 26.28 95.642 26.44C95.5087 26.5733 95.3887 26.6933 95.282 26.8C95.202 26.9067 95.1087 27 95.002 27.08C94.922 27.16 94.8287 27.2 94.722 27.2C94.6154 27.2 94.522 27.2 94.442 27.2C94.362 27.2 94.322 27.2 94.322 27.2C94.322 27.3067 94.1354 27.4533 93.762 27.64C93.3887 27.8 92.9754 27.9467 92.522 28.08C92.0687 28.2133 91.7087 28.28 91.442 28.28ZM92.282 24.92C92.442 24.92 92.682 24.8267 93.002 24.64C93.3487 24.4267 93.722 24.1733 94.122 23.88C94.522 23.5867 94.882 23.2933 95.202 23C95.5487 22.7067 95.802 22.4667 95.962 22.28C96.0687 22.1733 96.1887 22 96.322 21.76C96.482 21.52 96.6554 21.3067 96.842 21.12C97.4554 20.4267 97.842 19.88 98.002 19.48C98.162 19.0533 98.0954 18.6 97.802 18.12C97.6954 17.8267 97.562 17.6667 97.402 17.64C97.242 17.6133 96.9087 17.7067 96.402 17.92C96.082 18.1067 95.7354 18.4133 95.362 18.84C94.9887 19.2667 94.602 19.7467 94.202 20.28C93.8287 20.8133 93.482 21.36 93.162 21.92C92.842 22.48 92.5754 22.9867 92.362 23.44C92.1754 23.8933 92.082 24.2533 92.082 24.52C92.082 24.6267 92.1087 24.72 92.162 24.8C92.242 24.88 92.282 24.92 92.282 24.92ZM107.52 29.44C107.013 29.5733 106.56 29.4267 106.16 29C105.76 28.6 105.48 28 105.32 27.2C105.16 26.4 105.187 25.5067 105.4 24.52C105.533 24.2 105.64 23.8933 105.72 23.6C105.8 23.28 105.84 23.0267 105.84 22.84C105.893 22.5733 106 22.1867 106.16 21.68C106.32 21.1467 106.493 20.6 106.68 20.04C106.867 19.48 107.04 18.9867 107.2 18.56C107.387 18.1067 107.507 17.8267 107.56 17.72C107.667 17.72 107.76 17.6267 107.84 17.44C107.92 17.2533 107.96 17.0667 107.96 16.88C107.96 16.6667 108 16.4267 108.08 16.16C108.187 15.8933 108.293 15.7067 108.4 15.6C108.4 15.4667 108.427 15.32 108.48 15.16C108.56 14.9733 108.6 14.8267 108.6 14.72C108.6 14.6133 108.627 14.5067 108.68 14.4C108.76 14.2933 108.8 14.1867 108.8 14.08C108.987 13.7333 109.227 13.1867 109.52 12.44C109.84 11.6667 110.173 10.8133 110.52 9.88C110.893 8.94667 111.24 8.02667 111.56 7.12C111.88 6.21333 112.133 5.45333 112.32 4.84C112.533 4.2 112.64 3.81333 112.64 3.68C112.64 3.46667 112.72 3.26667 112.88 3.08C113.04 2.89333 113.227 2.8 113.44 2.8C113.52 2.72 113.707 2.66666 114 2.64C114.293 2.58667 114.493 2.56 114.6 2.56C114.6 2.56 114.653 2.61333 114.76 2.72C114.867 2.82667 115.027 2.98666 115.24 3.2C115.453 3.38667 115.653 3.6 115.84 3.84C116.053 4.08 116.16 4.36 116.16 4.68C116.16 5.02667 116.107 5.36 116 5.68C115.92 6 115.76 6.44 115.52 7C115.28 7.53333 114.907 8.33333 114.4 9.4C114.187 9.93333 113.96 10.44 113.72 10.92C113.48 11.3733 113.36 11.6533 113.36 11.76C113.36 11.8667 113.307 12.0267 113.2 12.24C113.12 12.4533 113.027 12.72 112.92 13.04C112.813 13.2533 112.667 13.5733 112.48 14C112.293 14.4 112.093 14.84 111.88 15.32C111.693 15.7733 111.533 16.1733 111.4 16.52C111.267 16.84 111.2 17.0267 111.2 17.08C111.2 17.1867 111.187 17.2933 111.16 17.4C111.16 17.5067 111.107 17.6133 111 17.72C110.893 17.72 110.827 17.8 110.8 17.96C110.8 18.0933 110.8 18.16 110.8 18.16C110.8 18.4267 110.587 19.1333 110.16 20.28C109.733 21.7467 109.333 23.0933 108.96 24.32C108.613 25.5467 108.44 26.5333 108.44 27.28C108.44 27.92 108.333 28.4133 108.12 28.76C107.933 29.1067 107.733 29.3333 107.52 29.44ZM126.757 31.88C125.61 31.1333 124.93 30.3867 124.717 29.64C124.53 28.8933 124.797 28.2933 125.517 27.84C125.677 27.7333 125.983 27.72 126.437 27.8C126.917 27.88 127.277 28.04 127.517 28.28C128.05 28.76 128.65 29.0533 129.317 29.16C130.01 29.2933 130.85 29.2267 131.837 28.96C132.957 28.6133 133.81 28.1867 134.397 27.68C135.01 27.1467 135.69 26.4267 136.437 25.52C136.997 24.8 137.383 24.0933 137.597 23.4C137.837 22.7067 137.943 22.08 137.917 21.52C137.917 20.9333 137.783 20.4933 137.517 20.2C136.85 19.2667 136.023 18.6267 135.037 18.28C134.05 17.9067 132.757 17.9333 131.157 18.36C130.97 18.3867 130.69 18.44 130.317 18.52C129.943 18.6 129.61 18.68 129.317 18.76C129.023 18.8133 128.863 18.84 128.837 18.84C128.65 18.8933 128.503 18.92 128.397 18.92C128.29 18.92 128.157 19.0533 127.997 19.32C127.863 19.56 127.65 20.08 127.357 20.88C127.063 21.6533 126.623 22.8533 126.037 24.48C125.477 26.1067 124.997 27.2667 124.597 27.96C124.223 28.6267 123.89 28.9333 123.597 28.88C123.303 28.8 122.97 28.5067 122.597 28C122.383 27.6267 122.143 27.2133 121.877 26.76C121.637 26.3067 121.65 25.84 121.917 25.36C122.05 25.12 122.157 24.9067 122.237 24.72C122.317 24.5067 122.423 24.1467 122.557 23.64C122.69 23.24 122.943 22.5467 123.317 21.56C123.717 20.5467 124.183 19.3733 124.717 18.04C125.25 16.68 125.81 15.28 126.397 13.84C126.983 12.4 127.543 11.04 128.077 9.76C128.637 8.48 129.103 7.4 129.477 6.52C129.85 5.69333 130.077 5.09333 130.157 4.72C130.237 4.34666 130.21 4.14666 130.077 4.12C130.077 3.98667 130.037 3.86667 129.957 3.76C129.877 3.62667 129.85 3.50667 129.877 3.4C129.877 3.29333 130.103 3.14666 130.557 2.96C131.037 2.77333 131.543 2.6 132.077 2.44C132.61 2.28 132.997 2.22667 133.237 2.28C133.37 2.28 133.53 2.28 133.717 2.28C133.903 2.25333 133.997 2.18667 133.997 2.08C134.077 2.08 134.33 2.05333 134.757 2C135.183 1.94667 135.65 1.94667 136.157 2C137.943 2.16 139.41 2.68 140.557 3.56C141.703 4.41333 142.263 5.78667 142.237 7.68C142.21 8.13333 142.023 8.72 141.677 9.44C141.33 10.16 140.89 10.88 140.357 11.6C139.85 12.32 139.303 12.9467 138.717 13.48C138.37 13.7733 137.997 14.08 137.597 14.4C137.223 14.6933 136.89 14.9467 136.597 15.16C136.33 15.3467 136.197 15.44 136.197 15.44C136.197 15.44 136.303 15.48 136.517 15.56C136.73 15.64 136.957 15.72 137.197 15.8C138.423 16.2533 139.383 16.8267 140.077 17.52C140.797 18.2133 141.303 19.1733 141.597 20.4C141.703 20.8 141.703 21.2933 141.597 21.88C141.517 22.4667 141.397 23.0533 141.237 23.64C141.077 24.2 140.903 24.68 140.717 25.08C140.53 25.2667 140.383 25.4667 140.277 25.68C140.17 25.8667 140.117 25.96 140.117 25.96C140.117 26.0133 140.01 26.2267 139.797 26.6C139.583 26.9467 139.33 27.3333 139.037 27.76C138.743 28.1867 138.463 28.56 138.197 28.88C137.93 29.0933 137.543 29.3867 137.037 29.76C136.557 30.16 136.023 30.5467 135.437 30.92C134.877 31.2933 134.343 31.5733 133.837 31.76C133.09 32.08 132.25 32.2933 131.317 32.4C130.41 32.5333 129.543 32.5467 128.717 32.44C127.89 32.36 127.237 32.1733 126.757 31.88ZM129.637 15.28C129.637 15.28 129.85 15.24 130.277 15.16C130.73 15.0533 131.223 14.9467 131.757 14.84C132.29 14.7067 132.69 14.5867 132.957 14.48C133.09 14.4 133.277 14.2933 133.517 14.16C133.783 14.0267 134.05 13.8267 134.317 13.56C134.69 13.2133 135.09 12.8267 135.517 12.4C135.943 11.9467 136.357 11.4667 136.757 10.96C137.183 10.4533 137.543 9.90667 137.837 9.32C138.45 8.36 138.783 7.66667 138.837 7.24C138.89 6.81333 138.743 6.42667 138.397 6.08C138.157 5.78667 137.823 5.57333 137.397 5.44C136.97 5.28 136.503 5.2 135.997 5.2C135.517 5.17333 135.05 5.22667 134.597 5.36C134.25 5.46667 133.983 5.6 133.797 5.76C133.61 5.89333 133.517 6.10667 133.517 6.4C133.517 6.64 133.437 6.89333 133.277 7.16C133.143 7.4 133.01 7.58667 132.877 7.72C132.85 7.90667 132.757 8.09333 132.597 8.28C132.463 8.44 132.397 8.52 132.397 8.52C132.397 8.62667 132.223 8.96 131.877 9.52C131.557 10.0533 131.21 10.8267 130.837 11.84C130.357 12.9867 130.037 13.8133 129.877 14.32C129.717 14.8267 129.637 15.1467 129.637 15.28Z" fill="#333333" fill-opacity="0.4"/>
</svg>
