<svg width="194" height="39" viewBox="0 0 194 39" fill="none" xmlns="http://www.w3.org/2000/svg">
<path d="M17.5583 31.5V30.7C18.4116 30.6467 19.0516 30.54 19.4783 30.38C19.9049 30.22 20.1849 29.9 20.3183 29.42C20.4783 28.94 20.5583 28.22 20.5583 27.26V7.42C20.5583 6.43333 20.4783 5.71333 20.3183 5.26C20.1849 4.78 19.8916 4.46 19.4383 4.3C19.0116 4.11333 18.3849 4.00667 17.5583 3.98V3.18C18.2783 3.20667 19.2116 3.23333 20.3583 3.26C21.5316 3.28667 22.6916 3.3 23.8383 3.3C25.0649 3.3 26.2116 3.28667 27.2783 3.26C28.3716 3.23333 29.2516 3.20667 29.9183 3.18V3.98C29.0649 4.00667 28.4116 4.11333 27.9583 4.3C27.5316 4.46 27.2516 4.78 27.1183 5.26C26.9849 5.71333 26.9183 6.43333 26.9183 7.42V27.26C26.9183 28.22 26.9849 28.94 27.1183 29.42C27.2783 29.9 27.5716 30.22 27.9983 30.38C28.4249 30.54 29.0649 30.6467 29.9183 30.7V31.5C29.2516 31.4467 28.3716 31.42 27.2783 31.42C26.2116 31.3933 25.0649 31.38 23.8383 31.38C22.6916 31.38 21.5316 31.3933 20.3583 31.42C19.2116 31.42 18.2783 31.4467 17.5583 31.5ZM0.598281 31.5V30.7C1.45161 30.6467 2.09161 30.54 2.51828 30.38C2.94495 30.22 3.22495 29.9 3.35828 29.42C3.51828 28.94 3.59828 28.22 3.59828 27.26V7.42C3.59828 6.43333 3.51828 5.71333 3.35828 5.26C3.22495 4.78 2.93161 4.46 2.47828 4.3C2.05161 4.11333 1.42495 4.00667 0.598281 3.98V3.18C1.29161 3.20667 2.18495 3.23333 3.27828 3.26C4.39828 3.28667 5.61161 3.3 6.91828 3.3C8.03828 3.3 9.14495 3.28667 10.2383 3.26C11.3316 3.23333 12.2383 3.20667 12.9583 3.18V3.98C12.1049 4.00667 11.4516 4.11333 10.9983 4.3C10.5716 4.46 10.2916 4.78 10.1583 5.26C10.0249 5.71333 9.95828 6.43333 9.95828 7.42V27.26C9.95828 28.22 10.0249 28.94 10.1583 29.42C10.3183 29.9 10.6116 30.22 11.0383 30.38C11.4649 30.54 12.1049 30.6467 12.9583 30.7V31.5C12.2383 31.4467 11.3316 31.42 10.2383 31.42C9.14495 31.3933 8.03828 31.38 6.91828 31.38C5.61161 31.38 4.39828 31.3933 3.27828 31.42C2.18495 31.42 1.29161 31.4467 0.598281 31.5ZM7.35828 17.66V16.86H23.1583V17.66H7.35828ZM41.7683 10.26C43.7149 10.26 45.4216 10.62 46.8883 11.34C48.3549 12.06 49.5016 13.22 50.3283 14.82C51.1549 16.42 51.5683 18.54 51.5683 21.18C51.5683 23.82 51.1549 25.94 50.3283 27.54C49.5016 29.1133 48.3549 30.26 46.8883 30.98C45.4216 31.7 43.7149 32.06 41.7683 32.06C39.8749 32.06 38.1816 31.7 36.6883 30.98C35.2216 30.26 34.0616 29.1133 33.2083 27.54C32.3816 25.94 31.9683 23.82 31.9683 21.18C31.9683 18.54 32.3816 16.42 33.2083 14.82C34.0616 13.22 35.2216 12.06 36.6883 11.34C38.1816 10.62 39.8749 10.26 41.7683 10.26ZM41.7683 11.06C40.7016 11.06 39.8083 11.86 39.0883 13.46C38.3683 15.0333 38.0083 17.6067 38.0083 21.18C38.0083 24.7533 38.3683 27.3267 39.0883 28.9C39.8083 30.4733 40.7016 31.26 41.7683 31.26C42.8616 31.26 43.7549 30.4733 44.4483 28.9C45.1683 27.3267 45.5283 24.7533 45.5283 21.18C45.5283 17.6067 45.1683 15.0333 44.4483 13.46C43.7549 11.86 42.8616 11.06 41.7683 11.06ZM61.9855 10.26C63.1055 10.26 64.0788 10.4067 64.9055 10.7C65.7588 10.9667 66.3721 11.2333 66.7455 11.5C67.6521 12.1133 68.2121 11.7133 68.4255 10.3H69.2655C69.2121 11.0467 69.1721 11.9667 69.1455 13.06C69.1188 14.1267 69.1055 15.5533 69.1055 17.34H68.2655C68.1321 16.3533 67.8788 15.38 67.5055 14.42C67.1321 13.46 66.5855 12.6733 65.8655 12.06C65.1721 11.4467 64.2655 11.14 63.1455 11.14C62.3721 11.14 61.7188 11.3667 61.1855 11.82C60.6521 12.2467 60.3855 12.8733 60.3855 13.7C60.3855 14.5 60.6255 15.2067 61.1055 15.82C61.5855 16.4067 62.1988 16.98 62.9455 17.54C63.7188 18.0733 64.5188 18.6467 65.3455 19.26C66.2255 19.9267 67.0255 20.5933 67.7455 21.26C68.4655 21.9 69.0388 22.6067 69.4655 23.38C69.8921 24.1533 70.1055 25.0733 70.1055 26.14C70.1055 27.34 69.7588 28.3933 69.0655 29.3C68.3721 30.18 67.4521 30.86 66.3055 31.34C65.1855 31.82 63.9321 32.06 62.5455 32.06C61.7455 32.06 61.0255 31.98 60.3855 31.82C59.7721 31.66 59.2388 31.46 58.7855 31.22C58.4388 31.06 58.1055 30.9133 57.7855 30.78C57.4921 30.62 57.2121 30.4867 56.9455 30.38C56.6788 30.3 56.4388 30.3933 56.2255 30.66C56.0388 30.9267 55.8921 31.3 55.7855 31.78H54.9455C54.9988 30.9267 55.0388 29.8867 55.0655 28.66C55.0921 27.4333 55.1055 25.8067 55.1055 23.78H55.9455C56.1055 25.22 56.3988 26.5 56.8255 27.62C57.2521 28.7133 57.8255 29.58 58.5455 30.22C59.2921 30.8333 60.2255 31.14 61.3455 31.14C61.7988 31.14 62.2388 31.0467 62.6655 30.86C63.0921 30.6733 63.4388 30.3667 63.7055 29.94C63.9988 29.5133 64.1455 28.9667 64.1455 28.3C64.1455 27.1267 63.7588 26.1533 62.9855 25.38C62.2388 24.6067 61.2788 23.7667 60.1055 22.86C59.2521 22.1667 58.4388 21.4867 57.6655 20.82C56.9188 20.1267 56.3055 19.38 55.8255 18.58C55.3455 17.7533 55.1055 16.82 55.1055 15.78C55.1055 14.58 55.4255 13.5667 56.0655 12.74C56.7055 11.9133 57.5455 11.3 58.5855 10.9C59.6521 10.4733 60.7855 10.26 61.9855 10.26ZM80.702 10.38V34.78C80.702 36.0333 81.022 36.86 81.662 37.26C82.302 37.6867 83.182 37.9 84.302 37.9V38.74C83.6087 38.7133 82.6487 38.6733 81.422 38.62C80.222 38.5933 78.942 38.58 77.582 38.58C76.5954 38.58 75.622 38.5933 74.662 38.62C73.7287 38.6733 73.022 38.7133 72.542 38.74V37.9C73.422 37.9 74.0354 37.7133 74.382 37.34C74.7554 36.9667 74.942 36.2467 74.942 35.18V15.18C74.942 13.98 74.7554 13.1 74.382 12.54C74.0087 11.9533 73.342 11.66 72.382 11.66V10.82C73.2354 10.9 74.062 10.94 74.862 10.94C75.9554 10.94 76.9954 10.9 77.982 10.82C78.9687 10.7133 79.8754 10.5667 80.702 10.38ZM86.902 10.26C88.262 10.26 89.4754 10.6333 90.542 11.38C91.6087 12.1 92.462 13.2067 93.102 14.7C93.742 16.1667 94.062 18.0067 94.062 20.22C94.062 22.1667 93.8354 23.8733 93.382 25.34C92.9554 26.8067 92.3287 28.0467 91.502 29.06C90.702 30.0467 89.7287 30.7933 88.582 31.3C87.462 31.8067 86.1954 32.06 84.782 32.06C83.742 32.06 82.7954 31.8733 81.942 31.5C81.0887 31.1533 80.4354 30.6467 79.982 29.98L80.382 29.46C80.6487 29.94 81.022 30.3133 81.502 30.58C82.0087 30.8467 82.582 30.98 83.222 30.98C84.422 30.98 85.3687 30.58 86.062 29.78C86.7554 28.9533 87.2487 27.8067 87.542 26.34C87.862 24.8467 88.022 23.0733 88.022 21.02C88.022 18.7267 87.8754 16.9267 87.582 15.62C87.2887 14.3133 86.8887 13.38 86.382 12.82C85.8754 12.26 85.262 11.98 84.542 11.98C83.582 11.98 82.702 12.3533 81.902 13.1C81.1287 13.8467 80.6887 14.9133 80.582 16.3L80.382 14.9C80.862 13.38 81.6754 12.2333 82.822 11.46C83.9954 10.66 85.3554 10.26 86.902 10.26ZM101.726 0.499999C102.846 0.499999 103.726 0.779999 104.366 1.34C105.033 1.87333 105.366 2.62 105.366 3.58C105.366 4.54 105.033 5.3 104.366 5.86C103.726 6.39333 102.846 6.66 101.726 6.66C100.606 6.66 99.7131 6.39333 99.0464 5.86C98.4064 5.3 98.0864 4.54 98.0864 3.58C98.0864 2.62 98.4064 1.87333 99.0464 1.34C99.7131 0.779999 100.606 0.499999 101.726 0.499999ZM104.846 10.38V27.78C104.846 28.9 105.033 29.66 105.406 30.06C105.806 30.46 106.473 30.66 107.406 30.66V31.5C106.926 31.4733 106.18 31.4467 105.166 31.42C104.153 31.3667 103.126 31.34 102.086 31.34C101.046 31.34 99.9931 31.3667 98.9264 31.42C97.8597 31.4467 97.0597 31.4733 96.5264 31.5V30.66C97.4597 30.66 98.1131 30.46 98.4864 30.06C98.8864 29.66 99.0864 28.9 99.0864 27.78V15.18C99.0864 13.98 98.8997 13.1 98.5264 12.54C98.1797 11.9533 97.5131 11.66 96.5264 11.66V10.82C97.3797 10.9 98.2064 10.94 99.0064 10.94C100.126 10.94 101.166 10.9 102.126 10.82C103.113 10.7133 104.02 10.5667 104.846 10.38ZM117.264 4.26V10.82H121.984V11.62H117.264V27.78C117.264 28.58 117.41 29.1533 117.704 29.5C117.997 29.82 118.437 29.98 119.024 29.98C119.504 29.98 119.984 29.8067 120.464 29.46C120.944 29.0867 121.37 28.46 121.744 27.58L122.424 27.94C121.997 29.14 121.344 30.1267 120.464 30.9C119.61 31.6733 118.437 32.06 116.944 32.06C116.064 32.06 115.29 31.94 114.624 31.7C113.957 31.4867 113.397 31.1533 112.944 30.7C112.357 30.1133 111.97 29.3933 111.784 28.54C111.597 27.66 111.504 26.5267 111.504 25.14V11.62H108.144V10.82H111.504V5.54C112.624 5.54 113.65 5.44667 114.584 5.26C115.544 5.04667 116.437 4.71333 117.264 4.26ZM128.726 31.78C127.526 31.78 126.526 31.5533 125.726 31.1C124.926 30.6467 124.339 30.0467 123.966 29.3C123.593 28.5267 123.406 27.6867 123.406 26.78C123.406 25.6333 123.659 24.7 124.166 23.98C124.699 23.26 125.379 22.6733 126.206 22.22C127.033 21.7667 127.899 21.3933 128.806 21.1C129.739 20.8067 130.619 20.5267 131.446 20.26C132.299 19.9667 132.979 19.6333 133.486 19.26C134.019 18.86 134.286 18.3533 134.286 17.74V14.62C134.286 13.9267 134.166 13.3133 133.926 12.78C133.713 12.22 133.366 11.7933 132.886 11.5C132.433 11.2067 131.833 11.06 131.086 11.06C130.553 11.06 130.019 11.14 129.486 11.3C128.953 11.4333 128.513 11.6733 128.166 12.02C128.913 12.2867 129.486 12.7 129.886 13.26C130.313 13.7933 130.526 14.4067 130.526 15.1C130.526 16.0067 130.206 16.7267 129.566 17.26C128.953 17.7933 128.219 18.06 127.366 18.06C126.406 18.06 125.673 17.7667 125.166 17.18C124.686 16.5667 124.446 15.8333 124.446 14.98C124.446 14.2067 124.633 13.5667 125.006 13.06C125.406 12.5533 125.953 12.0733 126.646 11.62C127.393 11.1933 128.286 10.86 129.326 10.62C130.393 10.38 131.539 10.26 132.766 10.26C133.993 10.26 135.099 10.3933 136.086 10.66C137.073 10.9 137.899 11.3533 138.566 12.02C139.179 12.6333 139.579 13.3933 139.766 14.3C139.953 15.18 140.046 16.3 140.046 17.66V28.54C140.046 29.2067 140.113 29.6733 140.246 29.94C140.379 30.18 140.606 30.3 140.926 30.3C141.166 30.3 141.393 30.2333 141.606 30.1C141.846 29.9667 142.099 29.8067 142.366 29.62L142.766 30.3C142.206 30.78 141.553 31.1533 140.806 31.42C140.086 31.66 139.273 31.78 138.366 31.78C137.379 31.78 136.593 31.6467 136.006 31.38C135.419 31.0867 134.993 30.7 134.726 30.22C134.486 29.74 134.366 29.18 134.366 28.54C133.726 29.5533 132.953 30.3533 132.046 30.94C131.139 31.5 130.033 31.78 128.726 31.78ZM131.566 29.22C132.099 29.22 132.579 29.1 133.006 28.86C133.459 28.5933 133.886 28.1667 134.286 27.58V19.38C134.046 19.78 133.713 20.14 133.286 20.46C132.859 20.78 132.406 21.1133 131.926 21.46C131.446 21.78 130.979 22.14 130.526 22.54C130.099 22.94 129.753 23.4333 129.486 24.02C129.219 24.6067 129.086 25.3133 129.086 26.14C129.086 27.18 129.313 27.9533 129.766 28.46C130.219 28.9667 130.819 29.22 131.566 29.22ZM152.069 0.179998V27.78C152.069 28.9 152.256 29.66 152.629 30.06C153.029 30.46 153.696 30.66 154.629 30.66V31.5C154.123 31.4733 153.363 31.4467 152.349 31.42C151.336 31.3667 150.309 31.34 149.269 31.34C148.229 31.34 147.176 31.3667 146.109 31.42C145.069 31.4467 144.283 31.4733 143.749 31.5V30.66C144.683 30.66 145.336 30.46 145.709 30.06C146.109 29.66 146.309 28.9 146.309 27.78V4.98C146.309 3.78 146.123 2.9 145.749 2.34C145.403 1.75333 144.736 1.46 143.749 1.46V0.619999C144.603 0.699998 145.429 0.739998 146.229 0.739998C147.323 0.739998 148.363 0.699998 149.349 0.619999C150.336 0.513333 151.243 0.366665 152.069 0.179998ZM178.427 3.18C183.68 3.18 187.587 4.38 190.147 6.78C192.707 9.15333 193.987 12.5667 193.987 17.02C193.987 19.9267 193.36 22.4733 192.107 24.66C190.854 26.82 189.027 28.5 186.627 29.7C184.254 30.9 181.4 31.5 178.067 31.5C177.64 31.5 177.08 31.4867 176.387 31.46C175.694 31.4333 174.974 31.42 174.227 31.42C173.48 31.3933 172.814 31.38 172.227 31.38C171.054 31.38 169.894 31.3933 168.747 31.42C167.627 31.42 166.734 31.4467 166.067 31.5V30.7C166.92 30.6467 167.56 30.54 167.987 30.38C168.414 30.22 168.694 29.9 168.827 29.42C168.987 28.94 169.067 28.22 169.067 27.26V7.42C169.067 6.43333 168.987 5.71333 168.827 5.26C168.694 4.78 168.4 4.46 167.947 4.3C167.52 4.11333 166.894 4.00667 166.067 3.98V3.18C166.734 3.20667 167.627 3.24667 168.747 3.3C169.894 3.32666 171.027 3.32666 172.147 3.3C173.107 3.27333 174.187 3.24667 175.387 3.22C176.614 3.19333 177.627 3.18 178.427 3.18ZM178.387 3.9C177.16 3.9 176.36 4.12666 175.987 4.58C175.614 5.03333 175.427 5.95333 175.427 7.34V27.34C175.427 28.7267 175.614 29.6467 175.987 30.1C176.387 30.5533 177.2 30.78 178.427 30.78C180.667 30.78 182.427 30.26 183.707 29.22C185.014 28.1533 185.947 26.6067 186.507 24.58C187.067 22.5533 187.347 20.0867 187.347 17.18C187.347 14.1933 187.04 11.7267 186.427 9.78C185.84 7.80666 184.894 6.34 183.587 5.38C182.28 4.39333 180.547 3.9 178.387 3.9Z" fill="#333333" fill-opacity="0.4"/>
</svg>
