<svg width="174" height="44" viewBox="0 0 174 44" fill="none" xmlns="http://www.w3.org/2000/svg">
<path d="M-7.77031 4.92V33H-14.6103V21.44H-25.2503V33H-32.0903V4.92H-25.2503V15.92H-14.6103V4.92H-7.77031ZM7.3275 33.32C5.14083 33.32 3.1675 32.8533 1.4075 31.92C-0.325833 30.9867 -1.69917 29.6533 -2.7125 27.92C-3.69917 26.1867 -4.1925 24.16 -4.1925 21.84C-4.1925 19.5467 -3.68583 17.5333 -2.6725 15.8C-1.65917 14.04 -0.2725 12.6933 1.4875 11.76C3.2475 10.8267 5.22083 10.36 7.4075 10.36C9.59417 10.36 11.5675 10.8267 13.3275 11.76C15.0875 12.6933 16.4742 14.04 17.4875 15.8C18.5008 17.5333 19.0075 19.5467 19.0075 21.84C19.0075 24.1333 18.4875 26.16 17.4475 27.92C16.4342 29.6533 15.0342 30.9867 13.2475 31.92C11.4875 32.8533 9.51417 33.32 7.3275 33.32ZM7.3275 27.4C8.63417 27.4 9.74083 26.92 10.6475 25.96C11.5808 25 12.0475 23.6267 12.0475 21.84C12.0475 20.0533 11.5942 18.68 10.6875 17.72C9.8075 16.76 8.71417 16.28 7.4075 16.28C6.07417 16.28 4.9675 16.76 4.0875 17.72C3.2075 18.6533 2.7675 20.0267 2.7675 21.84C2.7675 23.6267 3.19417 25 4.0475 25.96C4.9275 26.92 6.02083 27.4 7.3275 27.4ZM31.7163 33.32C29.7696 33.32 28.0363 32.9867 26.5163 32.32C24.9963 31.6533 23.7963 30.7467 22.9163 29.6C22.0363 28.4267 21.5429 27.12 21.4363 25.68H28.1963C28.2763 26.4533 28.6363 27.08 29.2763 27.56C29.9163 28.04 30.7029 28.28 31.6363 28.28C32.4896 28.28 33.1429 28.12 33.5963 27.8C34.0763 27.4533 34.3163 27.0133 34.3163 26.48C34.3163 25.84 33.9829 25.3733 33.3163 25.08C32.6496 24.76 31.5696 24.4133 30.0763 24.04C28.4763 23.6667 27.1429 23.28 26.0763 22.88C25.0096 22.4533 24.0896 21.8 23.3163 20.92C22.5429 20.0133 22.1563 18.8 22.1563 17.28C22.1563 16 22.5029 14.84 23.1963 13.8C23.9163 12.7333 24.9563 11.8933 26.3163 11.28C27.7029 10.6667 29.3429 10.36 31.2363 10.36C34.0363 10.36 36.2363 11.0533 37.8363 12.44C39.4629 13.8267 40.3963 15.6667 40.6363 17.96H34.3163C34.2096 17.1867 33.8629 16.5733 33.2763 16.12C32.7163 15.6667 31.9696 15.44 31.0363 15.44C30.2363 15.44 29.6229 15.6 29.1963 15.92C28.7696 16.2133 28.5563 16.6267 28.5563 17.16C28.5563 17.8 28.8896 18.28 29.5563 18.6C30.2496 18.92 31.3163 19.24 32.7563 19.56C34.4096 19.9867 35.7563 20.4133 36.7963 20.84C37.8363 21.24 38.7429 21.9067 39.5163 22.84C40.3163 23.7467 40.7296 24.9733 40.7563 26.52C40.7563 27.8267 40.3829 29 39.6363 30.04C38.9163 31.0533 37.8629 31.8533 36.4763 32.44C35.1163 33.0267 33.5296 33.32 31.7163 33.32ZM51.7809 13.84C52.4476 12.8 53.3676 11.96 54.5409 11.32C55.7143 10.68 57.0876 10.36 58.6609 10.36C60.5009 10.36 62.1676 10.8267 63.6609 11.76C65.1543 12.6933 66.3276 14.0267 67.1809 15.76C68.0609 17.4933 68.5009 19.5067 68.5009 21.8C68.5009 24.0933 68.0609 26.12 67.1809 27.88C66.3276 29.6133 65.1543 30.96 63.6609 31.92C62.1676 32.8533 60.5009 33.32 58.6609 33.32C57.1143 33.32 55.7409 33 54.5409 32.36C53.3676 31.72 52.4476 30.8933 51.7809 29.88V43.64H44.9409V10.68H51.7809V13.84ZM61.5409 21.8C61.5409 20.0933 61.0609 18.76 60.1009 17.8C59.1676 16.8133 58.0076 16.32 56.6209 16.32C55.2609 16.32 54.1009 16.8133 53.1409 17.8C52.2076 18.7867 51.7409 20.1333 51.7409 21.84C51.7409 23.5467 52.2076 24.8933 53.1409 25.88C54.1009 26.8667 55.2609 27.36 56.6209 27.36C57.9809 27.36 59.1409 26.8667 60.1009 25.88C61.0609 24.8667 61.5409 23.5067 61.5409 21.8ZM75.5294 8.36C74.3294 8.36 73.3427 8.01333 72.5694 7.32C71.8227 6.6 71.4494 5.72 71.4494 4.68C71.4494 3.61333 71.8227 2.73333 72.5694 2.04C73.3427 1.32 74.3294 0.959998 75.5294 0.959998C76.7027 0.959998 77.6627 1.32 78.4094 2.04C79.1827 2.73333 79.5694 3.61333 79.5694 4.68C79.5694 5.72 79.1827 6.6 78.4094 7.32C77.6627 8.01333 76.7027 8.36 75.5294 8.36ZM78.9294 10.68V33H72.0894V10.68H78.9294ZM96.3263 27.2V33H92.8463C90.3663 33 88.4329 32.4 87.0463 31.2C85.6596 29.9733 84.9663 27.9867 84.9663 25.24V16.36H82.2463V10.68H84.9663V5.24H91.8063V10.68H96.2863V16.36H91.8063V25.32C91.8063 25.9867 91.9663 26.4667 92.2863 26.76C92.6063 27.0533 93.1396 27.2 93.8863 27.2H96.3263ZM98.7763 21.8C98.7763 19.5067 99.2029 17.4933 100.056 15.76C100.936 14.0267 102.123 12.6933 103.616 11.76C105.11 10.8267 106.776 10.36 108.616 10.36C110.19 10.36 111.563 10.68 112.736 11.32C113.936 11.96 114.856 12.8 115.496 13.84V10.68H122.336V33H115.496V29.84C114.83 30.88 113.896 31.72 112.696 32.36C111.523 33 110.15 33.32 108.576 33.32C106.763 33.32 105.11 32.8533 103.616 31.92C102.123 30.96 100.936 29.6133 100.056 27.88C99.2029 26.12 98.7763 24.0933 98.7763 21.8ZM115.496 21.84C115.496 20.1333 115.016 18.7867 114.056 17.8C113.123 16.8133 111.976 16.32 110.616 16.32C109.256 16.32 108.096 16.8133 107.136 17.8C106.203 18.76 105.736 20.0933 105.736 21.8C105.736 23.5067 106.203 24.8667 107.136 25.88C108.096 26.8667 109.256 27.36 110.616 27.36C111.976 27.36 113.123 26.8667 114.056 25.88C115.016 24.8933 115.496 23.5467 115.496 21.84ZM134.125 3.4V33H127.285V3.4H134.125ZM165.038 28.04H154.558L152.878 33H145.718L155.878 4.92H163.798L173.958 33H166.718L165.038 28.04ZM163.278 22.76L159.798 12.48L156.358 22.76H163.278Z" fill="#333333" fill-opacity="0.4"/>
</svg>
