<svg width="86" height="39" viewBox="0 0 86 39" fill="none" xmlns="http://www.w3.org/2000/svg">
<path d="M9.73313 38.2C8.74646 38.2 8.03979 37.9867 7.61313 37.56C7.18646 37.1067 6.97313 36.2667 6.97313 35.04C6.97313 34.2133 7.05313 33.16 7.21313 31.88C7.39979 30.5733 7.69313 28.7867 8.09313 26.52C8.78646 22.3333 9.33313 18.7067 9.73313 15.64C9.97313 13.72 10.0931 12.12 10.0931 10.84C10.0931 9.64 9.65313 9.04 8.77313 9.04C8.07979 9.04 7.23979 9.4 6.25313 10.12C5.29313 10.8133 4.22646 11.9333 3.05313 13.48C2.67979 13.9867 2.26646 14.24 1.81313 14.24C1.43979 14.24 1.10646 14.0667 0.813125 13.72C0.546458 13.3467 0.413125 12.9333 0.413125 12.48C0.413125 12.0533 0.493125 11.6267 0.653125 11.2C0.839792 10.7467 1.13313 10.24 1.53313 9.68C2.81313 7.89333 4.23979 6.52 5.81313 5.56C7.38646 4.57333 8.95979 4.08 10.5331 4.08C11.9998 4.08 13.1198 4.54667 13.8931 5.48C14.6931 6.41333 15.0931 7.77333 15.0931 9.56C15.0931 10.28 15.0265 11.1333 14.8931 12.12C14.7598 13.08 14.6398 13.8667 14.5331 14.48C14.4265 15.0933 14.3465 15.52 14.2931 15.76C15.8131 11.4133 17.5198 8.38666 19.4131 6.68C21.3065 4.94666 23.3865 4.08 25.6531 4.08C27.3865 4.08 28.7465 4.69333 29.7331 5.92C30.7465 7.14666 31.2531 8.88 31.2531 11.12C31.2531 12 31.1331 13.0933 30.8931 14.4C32.2265 10.72 33.7865 8.08 35.5731 6.48C37.3598 4.88 39.4131 4.08 41.7331 4.08C43.5998 4.08 45.0265 4.68 46.0131 5.88C47.0265 7.08 47.5331 8.76 47.5331 10.92C47.5331 12.0933 47.3598 13.52 47.0131 15.2L44.5731 26.64C44.3065 27.9733 44.1731 29.12 44.1731 30.08C44.1731 31.2 44.4265 32.04 44.9331 32.6C45.4665 33.16 46.1998 33.44 47.1331 33.44C48.0131 33.44 48.8665 33.1467 49.6931 32.56C50.5465 31.9733 51.5465 31 52.6931 29.64C53.0131 29.2667 53.3731 29.08 53.7731 29.08C54.1198 29.08 54.3865 29.24 54.5731 29.56C54.7865 29.88 54.8931 30.32 54.8931 30.88C54.8931 31.92 54.6398 32.7467 54.1331 33.36C52.7465 35.04 51.3731 36.2667 50.0131 37.04C48.6531 37.8133 47.2265 38.2 45.7331 38.2C43.4665 38.2 41.6931 37.5333 40.4131 36.2C39.1331 34.84 38.4931 33.0267 38.4931 30.76C38.4931 29.1867 38.8131 26.9067 39.4531 23.92L41.0531 16.6C41.1065 16.36 41.1998 15.9333 41.3331 15.32C41.4665 14.7067 41.5731 14.1333 41.6531 13.6C41.7331 13.04 41.7731 12.4933 41.7731 11.96C41.7731 11.0267 41.5865 10.3333 41.2131 9.88C40.8665 9.4 40.3598 9.16 39.6931 9.16C38.4398 9.16 37.1198 9.97333 35.7331 11.6C34.3731 13.2 33.0665 15.8667 31.8131 19.6C30.5865 23.3333 29.5865 28.1867 28.8131 34.16C28.6265 35.76 28.2931 36.84 27.8131 37.4C27.3598 37.9333 26.6131 38.2 25.5731 38.2C24.6665 38.2 23.9998 37.9867 23.5731 37.56C23.1731 37.1333 22.9731 36.3333 22.9731 35.16C22.9731 34.0667 23.1198 32.64 23.4131 30.88C23.7065 29.0933 24.0798 27 24.5331 24.6C25.7598 18.1467 26.3731 13.9867 26.3731 12.12C26.3731 11.1067 26.1731 10.36 25.7731 9.88C25.3998 9.4 24.8265 9.16 24.0531 9.16C22.7465 9.16 21.3998 9.90667 20.0131 11.4C18.6265 12.8667 17.2665 15.4933 15.9331 19.28C14.6265 23.04 13.5331 28.1333 12.6531 34.56C12.4665 35.92 12.1865 36.8667 11.8131 37.4C11.4665 37.9333 10.7731 38.2 9.73313 38.2ZM69.51 29.08C69.8567 29.08 70.1233 29.24 70.31 29.56C70.5233 29.88 70.63 30.32 70.63 30.88C70.63 31.9467 70.3767 32.7733 69.87 33.36C68.8833 34.56 67.4833 35.6667 65.67 36.68C63.8833 37.6933 61.9633 38.2 59.91 38.2C57.11 38.2 54.9367 37.44 53.39 35.92C51.8433 34.4 51.07 32.32 51.07 29.68C51.07 27.84 51.4567 26.1333 52.23 24.56C53.0033 22.96 54.07 21.6933 55.43 20.76C56.8167 19.8267 58.3767 19.36 60.11 19.36C61.6567 19.36 62.8967 19.8267 63.83 20.76C64.7633 21.6667 65.23 22.9067 65.23 24.48C65.23 26.32 64.5633 27.9067 63.23 29.24C61.9233 30.5467 59.6967 31.5867 56.55 32.36C57.2167 33.5867 58.4833 34.2 60.35 34.2C61.55 34.2 62.91 33.7867 64.43 32.96C65.9767 32.1067 67.31 31 68.43 29.64C68.75 29.2667 69.11 29.08 69.51 29.08ZM59.43 23.28C58.4433 23.28 57.6033 23.8533 56.91 25C56.2433 26.1467 55.91 27.5333 55.91 29.16V29.24C57.4833 28.8667 58.7233 28.3067 59.63 27.56C60.5367 26.8133 60.99 25.9467 60.99 24.96C60.99 24.4533 60.8433 24.0533 60.55 23.76C60.2833 23.44 59.91 23.28 59.43 23.28ZM89.8978 29.08C90.2445 29.08 90.5111 29.24 90.6978 29.56C90.9111 29.88 91.0178 30.32 91.0178 30.88C91.0178 31.9467 90.7645 32.7733 90.2578 33.36C89.1645 34.6933 87.9645 35.84 86.6578 36.8C85.3511 37.7333 84.0578 38.2 82.7778 38.2C80.7511 38.2 79.2045 37.0133 78.1378 34.64C77.0178 36.0533 76.0311 37 75.1778 37.48C74.3511 37.96 73.3778 38.2 72.2578 38.2C70.6311 38.2 69.2845 37.6 68.2178 36.4C67.1778 35.1733 66.6578 33.5867 66.6578 31.64C66.6578 29.5067 67.1111 27.5333 68.0178 25.72C68.9245 23.88 70.1645 22.3867 71.7378 21.24C73.3378 20.0667 75.1245 19.3733 77.0978 19.16C77.6045 13.9867 78.5645 9.57333 79.9778 5.92C81.4178 2.24 83.2978 0.399998 85.6178 0.399998C86.7645 0.399998 87.7111 0.919998 88.4578 1.96C89.2311 3 89.6178 4.57333 89.6178 6.68C89.6178 9.66667 88.8845 13.16 87.4178 17.16C85.9511 21.16 83.9911 25.2667 81.5378 29.48C81.6445 31.0267 81.8711 32.1333 82.2178 32.8C82.5911 33.4667 83.0578 33.8 83.6178 33.8C84.3378 33.8 85.0711 33.48 85.8178 32.84C86.5645 32.2 87.5645 31.1333 88.8178 29.64C89.1378 29.2667 89.4978 29.08 89.8978 29.08ZM85.1778 4.32C84.6711 4.32 84.1645 5.22666 83.6578 7.04C83.1511 8.82667 82.7111 11.1733 82.3378 14.08C81.9911 16.9867 81.7378 20.0267 81.5778 23.2C84.5645 16.6933 86.0578 11.4667 86.0578 7.52C86.0578 6.50667 85.9645 5.72 85.7778 5.16C85.6178 4.6 85.4178 4.32 85.1778 4.32ZM73.6578 34.16C74.1645 34.16 74.6711 33.96 75.1778 33.56C75.6845 33.1333 76.3245 32.36 77.0978 31.24C76.8311 29.8 76.6978 28.1867 76.6978 26.4C76.6978 25.76 76.7245 24.72 76.7778 23.28C75.3111 23.7333 74.0845 24.72 73.0978 26.24C72.1378 27.7333 71.6578 29.4 71.6578 31.24C71.6578 33.1867 72.3245 34.16 73.6578 34.16ZM93.0038 16.72C91.8838 16.72 91.0438 16.4667 90.4838 15.96C89.9238 15.4267 89.6438 14.6933 89.6438 13.76C89.6438 12.8267 90.0038 12.0533 90.7238 11.44C91.4704 10.8 92.3904 10.48 93.4838 10.48C94.4704 10.48 95.2704 10.72 95.8838 11.2C96.4971 11.68 96.8038 12.36 96.8038 13.24C96.8038 14.3067 96.4571 15.16 95.7638 15.8C95.0704 16.4133 94.1504 16.72 93.0038 16.72ZM92.6838 38.2C90.9504 38.2 89.6838 37.5867 88.8838 36.36C88.1104 35.1333 87.7238 33.5067 87.7238 31.48C87.7238 30.28 87.8704 28.7467 88.1638 26.88C88.4838 24.9867 88.8838 23.2267 89.3638 21.6C89.6038 20.7467 89.9238 20.16 90.3238 19.84C90.7238 19.52 91.3638 19.36 92.2438 19.36C93.6038 19.36 94.2838 19.8133 94.2838 20.72C94.2838 21.3867 94.0304 22.9333 93.5238 25.36C92.8838 28.2933 92.5638 30.28 92.5638 31.32C92.5638 32.12 92.6704 32.7333 92.8838 33.16C93.0971 33.5867 93.4571 33.8 93.9638 33.8C94.4438 33.8 95.0438 33.4667 95.7638 32.8C96.4838 32.1333 97.4438 31.08 98.6438 29.64C98.9638 29.2667 99.3238 29.08 99.7238 29.08C100.07 29.08 100.337 29.24 100.524 29.56C100.737 29.88 100.844 30.32 100.844 30.88C100.844 31.9467 100.59 32.7733 100.084 33.36C97.4438 36.5867 94.9771 38.2 92.6838 38.2ZM113.808 38.2C110.634 38.2 107.874 37.6267 105.528 36.48C103.181 35.3067 101.381 33.6533 100.128 31.52C98.8742 29.3867 98.2475 26.9067 98.2475 24.08C98.2475 20.16 98.9808 16.68 100.448 13.64C101.941 10.6 103.954 8.25333 106.488 6.6C109.021 4.92 111.834 4.08 114.928 4.08C117.808 4.08 119.994 4.82666 121.488 6.32C122.981 7.78666 123.728 9.73333 123.728 12.16C123.728 13.7867 123.434 15.0933 122.848 16.08C122.288 17.0667 121.474 17.56 120.408 17.56C119.661 17.56 119.074 17.3867 118.648 17.04C118.221 16.6933 118.008 16.1867 118.008 15.52C118.008 15.28 118.061 14.84 118.168 14.2C118.328 13.4 118.408 12.76 118.408 12.28C118.408 9.85333 117.114 8.64 114.528 8.64C112.768 8.64 111.088 9.21333 109.488 10.36C107.888 11.5067 106.594 13.2 105.608 15.44C104.621 17.6533 104.128 20.2933 104.128 23.36C104.128 26.56 105.021 29.04 106.808 30.8C108.594 32.5333 111.234 33.4 114.728 33.4C116.461 33.4 118.208 33.1867 119.968 32.76C121.754 32.3067 123.728 31.6267 125.888 30.72C126.288 30.56 126.621 30.48 126.888 30.48C127.314 30.48 127.634 30.64 127.848 30.96C128.061 31.28 128.168 31.6933 128.168 32.2C128.168 33.8267 127.288 35.0267 125.528 35.8C123.634 36.6267 121.661 37.24 119.608 37.64C117.581 38.0133 115.648 38.2 113.808 38.2ZM129.949 38.2C128.296 38.2 126.976 37.6 125.989 36.4C125.003 35.2 124.509 33.6267 124.509 31.68C124.509 29.5467 125.003 27.5333 125.989 25.64C126.976 23.72 128.283 22.1867 129.909 21.04C131.563 19.8667 133.309 19.28 135.149 19.28C135.736 19.28 136.123 19.4 136.309 19.64C136.523 19.8533 136.696 20.2533 136.829 20.84C137.389 20.7333 137.976 20.68 138.589 20.68C139.896 20.68 140.549 21.1467 140.549 22.08C140.549 22.64 140.349 23.9733 139.949 26.08C139.336 29.1467 139.029 31.28 139.029 32.48C139.029 32.88 139.123 33.2 139.309 33.44C139.523 33.68 139.789 33.8 140.109 33.8C140.616 33.8 141.229 33.48 141.949 32.84C142.669 32.1733 143.643 31.1067 144.869 29.64C145.189 29.2667 145.549 29.08 145.949 29.08C146.296 29.08 146.563 29.24 146.749 29.56C146.963 29.88 147.069 30.32 147.069 30.88C147.069 31.9467 146.816 32.7733 146.309 33.36C145.216 34.72 144.056 35.8667 142.829 36.8C141.603 37.7333 140.416 38.2 139.269 38.2C138.389 38.2 137.576 37.9067 136.829 37.32C136.109 36.7067 135.563 35.88 135.189 34.84C133.803 37.08 132.056 38.2 129.949 38.2ZM131.389 34.16C131.976 34.16 132.536 33.8133 133.069 33.12C133.603 32.4267 133.989 31.5067 134.229 30.36L135.709 23C134.589 23.0267 133.549 23.4533 132.589 24.28C131.656 25.08 130.909 26.1467 130.349 27.48C129.789 28.8133 129.509 30.2267 129.509 31.72C129.509 32.5467 129.669 33.16 129.989 33.56C130.336 33.96 130.803 34.16 131.389 34.16ZM146.658 38.2C145.645 38.2 144.925 37.6667 144.498 36.6C144.098 35.5333 143.898 33.8267 143.898 31.48C143.898 28.0133 144.392 24.72 145.378 21.6C145.618 20.8267 146.005 20.2667 146.538 19.92C147.098 19.5467 147.872 19.36 148.858 19.36C149.392 19.36 149.765 19.4267 149.978 19.56C150.192 19.6933 150.298 19.9467 150.298 20.32C150.298 20.7467 150.098 21.7067 149.698 23.2C149.432 24.2667 149.218 25.2 149.058 26C148.898 26.8 148.765 27.7867 148.658 28.96C149.538 26.6667 150.525 24.8 151.618 23.36C152.712 21.92 153.778 20.8933 154.818 20.28C155.885 19.6667 156.858 19.36 157.738 19.36C159.472 19.36 160.338 20.2267 160.338 21.96C160.338 22.3067 160.218 23.1467 159.978 24.48C159.765 25.5467 159.658 26.2133 159.658 26.48C159.658 27.4133 159.992 27.88 160.658 27.88C161.405 27.88 162.365 27.2933 163.538 26.12C163.885 25.7733 164.245 25.6 164.618 25.6C164.965 25.6 165.232 25.76 165.418 26.08C165.632 26.3733 165.738 26.7733 165.738 27.28C165.738 28.2667 165.472 29.04 164.938 29.6C164.192 30.3733 163.312 31.04 162.298 31.6C161.312 32.1333 160.258 32.4 159.138 32.4C157.725 32.4 156.645 32.04 155.898 31.32C155.178 30.6 154.818 29.6267 154.818 28.4C154.818 28 154.858 27.6 154.938 27.2C154.992 26.6667 155.018 26.3067 155.018 26.12C155.018 25.6933 154.872 25.48 154.578 25.48C154.178 25.48 153.645 25.9333 152.978 26.84C152.338 27.72 151.698 28.8933 151.058 30.36C150.418 31.8267 149.898 33.3733 149.498 35C149.205 36.2533 148.858 37.1067 148.458 37.56C148.085 37.9867 147.485 38.2 146.658 38.2ZM176.342 30.28C176.688 30.28 176.955 30.44 177.142 30.76C177.355 31.08 177.462 31.52 177.462 32.08C177.462 33.04 177.235 33.8667 176.782 34.56C176.035 35.7067 175.048 36.6 173.822 37.24C172.622 37.88 171.182 38.2 169.502 38.2C166.942 38.2 164.955 37.44 163.542 35.92C162.128 34.3733 161.422 32.2933 161.422 29.68C161.422 27.84 161.808 26.1333 162.582 24.56C163.355 22.96 164.422 21.6933 165.782 20.76C167.168 19.8267 168.728 19.36 170.462 19.36C172.008 19.36 173.248 19.8267 174.182 20.76C175.115 21.6667 175.582 22.9067 175.582 24.48C175.582 26.32 174.915 27.9067 173.582 29.24C172.275 30.5467 170.035 31.5867 166.862 32.36C167.502 33.5867 168.582 34.2 170.102 34.2C171.195 34.2 172.088 33.9467 172.782 33.44C173.502 32.9333 174.328 32.08 175.262 30.88C175.582 30.48 175.942 30.28 176.342 30.28ZM169.782 23.28C168.795 23.28 167.955 23.8533 167.262 25C166.595 26.1467 166.262 27.5333 166.262 29.16V29.24C167.835 28.8667 169.075 28.3067 169.982 27.56C170.888 26.8133 171.342 25.9467 171.342 24.96C171.342 24.4533 171.195 24.0533 170.902 23.76C170.635 23.44 170.262 23.28 169.782 23.28Z" fill="#333333" fill-opacity="0.4"/>
</svg>
