<svg width="402" height="42" viewBox="0 0 402 42" fill="none" xmlns="http://www.w3.org/2000/svg">
<path d="M30.7639 38.06C29.9906 38.06 29.4039 37.82 29.0039 37.34C28.6306 36.86 28.4439 36.2067 28.4439 35.38C28.4439 34.7133 28.4706 34.14 28.5239 33.66C28.5772 33.18 28.6839 32.6733 28.8439 32.14C29.0039 31.58 29.2039 30.9 29.4439 30.1C29.7106 29.2733 30.0439 28.22 30.4439 26.94C30.6839 26.1933 30.9772 25.22 31.3239 24.02C31.6972 22.7933 32.0706 21.46 32.4439 20.02C32.8172 18.5533 33.1239 17.0867 33.3639 15.62C33.6306 14.1267 33.7639 12.7533 33.7639 11.5C33.7639 10.6467 33.5772 9.86 33.2039 9.14C30.7239 11.5933 28.3772 14.7933 26.1639 18.74C23.9772 22.6867 22.0306 27.2733 20.3239 32.5C19.8172 33.8067 19.2306 34.6867 18.5639 35.14C17.8972 35.5667 17.2572 35.78 16.6439 35.78C16.4572 35.78 16.1772 35.6733 15.8039 35.46C15.4306 35.22 15.0839 34.7933 14.7639 34.18C14.4439 33.5667 14.2839 32.7 14.2839 31.58C14.2839 31.3133 14.3506 30.98 14.4839 30.58C14.6172 30.1533 14.8172 29.7 15.0839 29.22C15.3239 27.8333 15.4972 26.3533 15.6039 24.78C15.7372 23.18 15.8172 21.5933 15.8439 20.02C15.8972 18.42 15.9239 16.9267 15.9239 15.54C15.9239 14.4733 15.8439 13.54 15.6839 12.74C14.3772 14.3933 13.1372 16.3933 11.9639 18.74C10.7906 21.0867 9.72391 23.58 8.76391 26.22C7.83057 28.86 7.05724 31.4467 6.44391 33.98C6.28391 34.5933 6.09724 35.1667 5.88391 35.7C5.67057 36.2067 5.35057 36.62 4.92391 36.94C4.52391 37.2333 3.93724 37.38 3.16391 37.38C2.31057 37.38 1.67057 37.0333 1.24391 36.34C0.81724 35.6467 0.603906 34.7267 0.603906 33.58C0.603906 32.7 0.790573 31.5667 1.16391 30.18C1.53724 28.7667 2.04391 27.2333 2.68391 25.58C3.32391 23.9 4.05724 22.1933 4.88391 20.46C5.73724 18.7 6.63057 17.0067 7.56391 15.38C8.49724 13.7533 9.44391 12.3 10.4039 11.02C11.3906 9.71333 12.3239 8.68667 13.2039 7.94C14.1106 7.16667 14.9372 6.78 15.6839 6.78C15.7106 6.78 15.7506 6.78 15.8039 6.78C16.3906 6.78 16.9239 6.83333 17.4039 6.94C17.9106 7.02 18.3506 7.3 18.7239 7.78C19.1239 8.23333 19.4706 8.99333 19.7639 10.06C20.0572 11.1267 20.3106 12.6333 20.5239 14.58C20.5772 15.06 20.6172 15.6333 20.6439 16.3C20.6706 16.94 20.6839 17.6067 20.6839 18.3C21.5639 16.3267 22.5239 14.4733 23.5639 12.74C24.6306 11.0067 25.7239 9.47333 26.8439 8.14C27.9906 6.80667 29.1239 5.76667 30.2439 5.02C31.3639 4.27333 32.4039 3.9 33.3639 3.9C34.4839 3.9 35.5239 4.18 36.4839 4.74C37.4439 5.27333 38.2172 6.18 38.8039 7.46C39.3906 8.74 39.6839 10.4867 39.6839 12.7C39.6839 15.0467 39.4706 17.3267 39.0439 19.54C38.6172 21.7267 38.0839 23.7933 37.4439 25.74C36.8039 27.6867 36.1639 29.4733 35.5239 31.1C34.8839 32.7 34.3506 34.0867 33.9239 35.26C33.5772 36.0867 33.1772 36.7667 32.7239 37.3C32.2706 37.8067 31.6172 38.06 30.7639 38.06ZM50.2017 38.86C48.5484 38.86 47.2151 38.2867 46.2017 37.14C45.1884 35.9667 44.6817 34.0867 44.6817 31.5C44.6817 29.8467 44.8684 28.1933 45.2417 26.54C45.6417 24.86 46.1884 23.2733 46.8817 21.78C47.6017 20.26 48.4284 18.9133 49.3617 17.74C50.3217 16.5667 51.3751 15.6467 52.5217 14.98C53.6684 14.2867 54.8551 13.94 56.0817 13.94C58.1617 13.94 59.7884 14.5 60.9617 15.62C62.1351 16.74 62.7217 18.1667 62.7217 19.9C62.7217 21.2333 62.3484 22.4467 61.6017 23.54C60.8817 24.6067 59.8951 25.5667 58.6417 26.42C57.3884 27.2733 55.9884 28.0467 54.4417 28.74C52.8951 29.4333 51.3084 30.06 49.6817 30.62C49.5484 31.58 49.4817 32.4333 49.4817 33.18C49.4817 33.6333 49.7351 33.86 50.2417 33.86C51.4417 33.86 52.7217 33.6733 54.0817 33.3C55.4684 32.9 56.8684 32.3933 58.2817 31.78C59.6951 31.14 61.0551 30.4867 62.3617 29.82C63.6684 29.1267 64.8551 28.4733 65.9217 27.86C67.0151 27.22 67.9084 26.7133 68.6017 26.34C69.3217 25.94 69.7884 25.74 70.0017 25.74C70.5884 25.74 71.0151 25.9133 71.2817 26.26C71.5484 26.6067 71.6817 26.98 71.6817 27.38C71.6817 27.5667 71.3217 27.98 70.6017 28.62C69.9084 29.26 68.9484 30.02 67.7217 30.9C66.5217 31.7533 65.1617 32.6467 63.6417 33.58C62.1484 34.4867 60.5884 35.3533 58.9617 36.18C57.3617 36.98 55.8017 37.62 54.2817 38.1C52.7884 38.6067 51.4284 38.86 50.2017 38.86ZM50.3617 27.06C51.4551 26.42 52.5351 25.7533 53.6017 25.06C54.6951 24.34 55.6017 23.54 56.3217 22.66C57.0417 21.7533 57.4017 20.7 57.4017 19.5C57.4017 19.1533 57.3084 18.9267 57.1217 18.82C56.9351 18.6867 56.6684 18.62 56.3217 18.62C55.3884 18.62 54.5351 19.0333 53.7617 19.86C53.0151 20.6867 52.3484 21.7533 51.7617 23.06C51.2017 24.34 50.7351 25.6733 50.3617 27.06ZM86.0408 16.1C87.5074 12.6067 88.8008 9.00667 89.9208 5.3C90.1341 4.55333 90.4408 3.98 90.8408 3.58C91.2674 3.18 91.8541 2.98 92.6008 2.98C93.2141 2.98 93.6808 3.16667 94.0008 3.54C94.3208 3.88667 94.4808 4.36667 94.4808 4.98C94.4808 5.48667 94.2674 6.39333 93.8408 7.7C93.4141 8.98 92.8941 10.6067 92.2808 12.58C91.6675 14.5533 91.0541 16.8333 90.4408 19.42C89.8275 22.0067 89.3074 24.8467 88.8808 27.94C88.4541 31.0333 88.2408 34.34 88.2408 37.86C88.2408 38.82 88.0541 39.6067 87.6808 40.22C87.3341 40.86 86.7208 41.18 85.8408 41.18C84.8808 41.18 84.1741 40.8467 83.7208 40.18C83.2941 39.5133 83.0808 38.66 83.0808 37.62C83.0808 35.5667 83.1474 33.86 83.2808 32.5C83.4408 31.1133 83.6008 29.9267 83.7608 28.94C82.4541 31.18 81.0674 33.1133 79.6008 34.74C78.1608 36.34 76.7741 37.5667 75.4408 38.42C74.1074 39.3 72.9608 39.74 72.0008 39.74C70.4274 39.74 69.1474 39.3 68.1608 38.42C67.1741 37.54 66.6808 36.2067 66.6808 34.42C66.6808 33.0333 67.0141 31.6067 67.6808 30.14C68.3474 28.6467 69.2274 27.18 70.3208 25.74C71.4141 24.3 72.6141 22.9533 73.9208 21.7C75.2541 20.42 76.5874 19.3 77.9208 18.34C79.2541 17.3533 80.4941 16.58 81.6408 16.02C82.7874 15.46 83.7208 15.18 84.4408 15.18C85.2408 15.18 85.7741 15.4867 86.0408 16.1ZM85.1208 18.26C84.9608 18.3667 84.7874 18.4733 84.6008 18.58C84.4408 18.66 84.2808 18.7533 84.1208 18.86C83.1074 19.5 82.0274 20.2733 80.8808 21.18C79.7341 22.06 78.6008 23.0467 77.4808 24.14C76.3608 25.2067 75.3341 26.3267 74.4008 27.5C73.4941 28.6467 72.7608 29.7933 72.2008 30.94C71.6674 32.06 71.4008 33.14 71.4008 34.18C71.4008 34.3667 71.4808 34.5 71.6408 34.58C71.8008 34.66 71.9474 34.7 72.0808 34.7C73.0141 34.7 74.0141 34.2867 75.0808 33.46C76.1741 32.6333 77.2808 31.4867 78.4008 30.02C79.5474 28.5267 80.6808 26.78 81.8008 24.78C82.9474 22.78 84.0541 20.6067 85.1208 18.26ZM98.803 38.1C98.0563 38.1 97.3896 37.8467 96.803 37.34C96.243 36.8333 95.963 36.0067 95.963 34.86C95.963 34.2467 96.043 33.38 96.203 32.26C96.3896 31.14 96.6296 29.9267 96.923 28.62C97.2163 27.2867 97.5363 25.9667 97.883 24.66C98.2563 23.3533 98.6163 22.1933 98.963 21.18C99.3096 20.14 99.6163 19.3667 99.883 18.86C100.23 18.2467 100.55 17.8733 100.843 17.74C101.163 17.58 101.47 17.5 101.763 17.5C102.296 17.5 102.79 17.66 103.243 17.98C103.723 18.3 103.963 19.0067 103.963 20.1C103.963 20.5267 103.883 21.22 103.723 22.18C103.563 23.1133 103.363 24.2067 103.123 25.46C102.883 26.7133 102.616 28.0067 102.323 29.34C102.056 30.6733 101.79 31.94 101.523 33.14C101.283 34.3133 101.083 35.3 100.923 36.1C100.79 36.7667 100.51 37.26 100.083 37.58C99.683 37.9267 99.2563 38.1 98.803 38.1ZM103.403 13.54C102.523 13.54 101.71 13.2867 100.963 12.78C100.216 12.2467 99.843 11.4333 99.843 10.34C99.843 9.43333 100.07 8.7 100.523 8.14C100.976 7.58 101.51 7.18 102.123 6.94C102.763 6.67333 103.323 6.54 103.803 6.54C104.283 6.54 104.816 6.64666 105.403 6.86C105.99 7.04666 106.496 7.40666 106.923 7.94C107.376 8.44667 107.603 9.18 107.603 10.14C107.603 10.78 107.376 11.3667 106.923 11.9C106.47 12.4067 105.91 12.8067 105.243 13.1C104.603 13.3933 103.99 13.54 103.403 13.54ZM116.096 38.62C114.602 38.62 113.309 38.2733 112.216 37.58C111.122 36.9133 110.282 36.0467 109.696 34.98C109.109 33.8867 108.816 32.7667 108.816 31.62C108.816 29.7 109.109 27.9267 109.696 26.3C110.282 24.6467 111.056 23.1533 112.016 21.82C112.976 20.46 114.016 19.26 115.136 18.22C116.282 17.18 117.389 16.3133 118.456 15.62C119.549 14.9 120.522 14.3667 121.376 14.02C122.229 13.6467 122.856 13.46 123.256 13.46C123.976 13.46 124.482 13.62 124.776 13.94C125.096 14.2333 125.256 14.7267 125.256 15.42C125.256 15.82 124.962 16.3 124.376 16.86C123.816 17.42 123.069 18.06 122.136 18.78C121.229 19.5 120.269 20.3133 119.256 21.22C118.242 22.1267 117.269 23.14 116.336 24.26C115.429 25.38 114.682 26.6067 114.096 27.94C113.536 29.2733 113.256 30.7267 113.256 32.3C113.256 32.8867 113.362 33.34 113.576 33.66C113.816 33.98 114.202 34.14 114.736 34.14C116.256 34.14 117.882 33.8733 119.616 33.34C121.376 32.78 123.122 32.0867 124.856 31.26C126.616 30.4067 128.269 29.5267 129.816 28.62C131.389 27.7133 132.736 26.9 133.856 26.18C134.309 25.86 134.696 25.6067 135.016 25.42C135.336 25.2333 135.562 25.14 135.696 25.14C136.496 25.14 136.896 25.5533 136.896 26.38C136.896 26.8067 136.576 27.38 135.936 28.1C135.189 29.0333 134.176 29.9933 132.896 30.98C131.642 31.9667 130.242 32.9133 128.696 33.82C127.176 34.7267 125.616 35.54 124.016 36.26C122.442 36.98 120.962 37.5533 119.576 37.98C118.189 38.4067 117.029 38.62 116.096 38.62ZM136.069 39.02C135.216 39.02 134.442 38.78 133.749 38.3C133.056 37.8467 132.509 37.2467 132.109 36.5C131.709 35.7267 131.509 34.9 131.509 34.02C131.509 32.3667 131.869 30.7533 132.589 29.18C133.336 27.6067 134.309 26.1133 135.509 24.7C136.709 23.2867 138.016 21.9933 139.429 20.82C140.869 19.62 142.296 18.5933 143.709 17.74C145.149 16.8867 146.456 16.22 147.629 15.74C148.829 15.26 149.762 15.02 150.429 15.02C151.202 15.02 151.829 15.1933 152.309 15.54C152.816 15.86 153.069 16.3667 153.069 17.06C153.069 17.2733 153.016 17.4467 152.909 17.58C153.256 17.66 153.536 17.86 153.749 18.18C153.962 18.5 154.069 18.98 154.069 19.62C154.069 19.8867 154.002 20.58 153.869 21.7C153.736 22.82 153.589 24.18 153.429 25.78C153.296 27.38 153.229 29.0467 153.229 30.78C153.229 31.0467 153.269 31.2867 153.349 31.5C153.429 31.6867 153.602 31.78 153.869 31.78C154.936 31.78 156.016 31.5667 157.109 31.14C158.229 30.6867 159.309 30.14 160.349 29.5C161.416 28.8333 162.376 28.18 163.229 27.54C164.109 26.8733 164.842 26.3267 165.429 25.9C166.042 25.4467 166.442 25.22 166.629 25.22C167.536 25.22 167.989 25.6733 167.989 26.58C167.989 26.82 167.696 27.3267 167.109 28.1C166.549 28.8467 165.776 29.7133 164.789 30.7C163.802 31.66 162.696 32.62 161.469 33.58C160.269 34.5133 159.016 35.2867 157.709 35.9C156.429 36.5133 155.189 36.82 153.989 36.82C152.522 36.82 151.402 36.4733 150.629 35.78C149.882 35.0867 149.349 34.1533 149.029 32.98C148.736 31.78 148.576 30.4333 148.549 28.94C147.189 30.8867 145.776 32.62 144.309 34.14C142.869 35.6333 141.442 36.82 140.029 37.7C138.616 38.58 137.296 39.02 136.069 39.02ZM150.229 18.98C147.616 20.2333 145.269 21.6733 143.189 23.3C141.109 24.9 139.456 26.58 138.229 28.34C137.029 30.1 136.429 31.7933 136.429 33.42C136.429 33.8733 136.642 34.1 137.069 34.1C137.576 34.1 138.242 33.8067 139.069 33.22C139.922 32.6333 140.842 31.86 141.829 30.9C142.816 29.9133 143.802 28.82 144.789 27.62C145.776 26.3933 146.696 25.14 147.549 23.86C148.402 22.58 149.082 21.3533 149.589 20.18C149.776 19.7533 149.989 19.3533 150.229 18.98ZM172.834 39.5C170.434 39.5 168.541 38.7667 167.154 37.3C165.794 35.8067 165.114 33.6867 165.114 30.94C165.114 29.4467 165.314 27.7 165.714 25.7C166.114 23.6733 166.634 21.54 167.274 19.3C167.941 17.0333 168.648 14.7933 169.394 12.58C170.168 10.3667 170.928 8.31333 171.674 6.42C172.421 4.52667 173.074 2.94 173.634 1.66C174.114 0.673332 174.794 0.179999 175.674 0.179999C176.234 0.179999 176.688 0.353332 177.034 0.699999C177.408 1.04666 177.594 1.60666 177.594 2.38C177.594 2.75333 177.408 3.56667 177.034 4.82C176.661 6.07333 176.168 7.62 175.554 9.46C174.968 11.2733 174.328 13.2333 173.634 15.34C172.968 17.4467 172.328 19.5667 171.714 21.7C171.128 23.8333 170.648 25.8467 170.274 27.74C169.901 29.6067 169.714 31.1933 169.714 32.5C169.714 33.0333 169.861 33.46 170.154 33.78C170.474 34.1 170.888 34.26 171.394 34.26C172.488 34.26 173.608 34.06 174.754 33.66C175.928 33.26 177.074 32.7533 178.194 32.14C179.341 31.5267 180.421 30.8733 181.434 30.18C182.448 29.4867 183.354 28.8333 184.154 28.22C184.981 27.58 185.648 27.0733 186.154 26.7C186.821 26.1933 187.274 25.94 187.514 25.94C188.421 25.94 188.874 26.38 188.874 27.26C188.874 27.4733 188.608 27.9133 188.074 28.58C187.621 29.1667 186.981 29.9133 186.154 30.82C185.328 31.7267 184.368 32.6867 183.274 33.7C182.208 34.6867 181.061 35.62 179.834 36.5C178.634 37.38 177.434 38.1 176.234 38.66C175.034 39.22 173.901 39.5 172.834 39.5ZM223.587 30.34C224.413 30.34 225 30.5667 225.347 31.02C225.693 31.4467 225.867 31.9 225.867 32.38C225.867 33.0467 225.533 33.7533 224.867 34.5C224.2 35.2467 223.333 35.94 222.267 36.58C221.227 37.1933 220.107 37.7 218.907 38.1C217.707 38.5 216.56 38.7 215.467 38.7C213.84 38.7 212.28 38.26 210.787 37.38C209.32 36.4733 208.12 35.2067 207.187 33.58C206.28 31.9533 205.827 30.02 205.827 27.78C205.827 25.94 206.173 24.1133 206.867 22.3C207.587 20.4867 208.533 18.74 209.707 17.06C210.907 15.38 212.213 13.82 213.627 12.38C215.067 10.94 216.507 9.68666 217.947 8.62C219.413 7.55333 220.76 6.72667 221.987 6.14C223.213 5.52667 224.2 5.22 224.947 5.22C225.88 5.22 226.573 5.46 227.027 5.94C227.507 6.39333 227.747 7.03333 227.747 7.86C227.747 8.52667 227.613 9.04667 227.347 9.42C227.107 9.76667 226.72 10.0733 226.187 10.34C224.48 11.22 222.747 12.2867 220.987 13.54C219.253 14.7933 217.667 16.18 216.227 17.7C214.787 19.1933 213.627 20.7667 212.747 22.42C211.867 24.0733 211.427 25.7533 211.427 27.46C211.427 29.3267 211.8 30.74 212.547 31.7C213.293 32.66 214.307 33.14 215.587 33.14C216.227 33.14 216.92 33.0067 217.667 32.74C218.413 32.4467 219.147 32.1133 219.867 31.74C220.613 31.3667 221.307 31.0467 221.947 30.78C222.613 30.4867 223.16 30.34 223.587 30.34ZM237.35 38.86C235.697 38.86 234.363 38.2867 233.35 37.14C232.337 35.9667 231.83 34.0867 231.83 31.5C231.83 29.8467 232.017 28.1933 232.39 26.54C232.79 24.86 233.337 23.2733 234.03 21.78C234.75 20.26 235.577 18.9133 236.51 17.74C237.47 16.5667 238.523 15.6467 239.67 14.98C240.817 14.2867 242.003 13.94 243.23 13.94C245.31 13.94 246.937 14.5 248.11 15.62C249.283 16.74 249.87 18.1667 249.87 19.9C249.87 21.2333 249.497 22.4467 248.75 23.54C248.03 24.6067 247.043 25.5667 245.79 26.42C244.537 27.2733 243.137 28.0467 241.59 28.74C240.043 29.4333 238.457 30.06 236.83 30.62C236.697 31.58 236.63 32.4333 236.63 33.18C236.63 33.6333 236.883 33.86 237.39 33.86C238.59 33.86 239.87 33.6733 241.23 33.3C242.617 32.9 244.017 32.3933 245.43 31.78C246.843 31.14 248.203 30.4867 249.51 29.82C250.817 29.1267 252.003 28.4733 253.07 27.86C254.163 27.22 255.057 26.7133 255.75 26.34C256.47 25.94 256.937 25.74 257.15 25.74C257.737 25.74 258.163 25.9133 258.43 26.26C258.697 26.6067 258.83 26.98 258.83 27.38C258.83 27.5667 258.47 27.98 257.75 28.62C257.057 29.26 256.097 30.02 254.87 30.9C253.67 31.7533 252.31 32.6467 250.79 33.58C249.297 34.4867 247.737 35.3533 246.11 36.18C244.51 36.98 242.95 37.62 241.43 38.1C239.937 38.6067 238.577 38.86 237.35 38.86ZM237.51 27.06C238.603 26.42 239.683 25.7533 240.75 25.06C241.843 24.34 242.75 23.54 243.47 22.66C244.19 21.7533 244.55 20.7 244.55 19.5C244.55 19.1533 244.457 18.9267 244.27 18.82C244.083 18.6867 243.817 18.62 243.47 18.62C242.537 18.62 241.683 19.0333 240.91 19.86C240.163 20.6867 239.497 21.7533 238.91 23.06C238.35 24.34 237.883 25.6733 237.51 27.06ZM259.9 37.5C259.26 37.5 258.62 37.2867 257.98 36.86C257.367 36.4067 256.86 35.7667 256.46 34.94C256.06 34.0867 255.86 33.06 255.86 31.86C255.86 30.26 256.073 28.5533 256.5 26.74C256.953 24.9267 257.5 23.1133 258.14 21.3C258.78 19.4867 259.407 17.78 260.02 16.18C260.313 15.4067 260.673 14.8867 261.1 14.62C261.527 14.3267 262.087 14.18 262.78 14.18C264.353 14.18 265.14 14.9667 265.14 16.54C265.14 16.8067 265.02 17.3267 264.78 18.1C264.54 18.8467 264.22 19.7667 263.82 20.86C263.447 21.9533 263.047 23.14 262.62 24.42C262.22 25.6733 261.847 26.9533 261.5 28.26C261.18 29.54 260.927 30.7533 260.74 31.9C261.353 30.9667 262.033 29.8067 262.78 28.42C263.553 27.0067 264.367 25.5267 265.22 23.98C266.1 22.4333 266.98 20.9933 267.86 19.66C268.74 18.3 269.607 17.1933 270.46 16.34C271.313 15.4867 272.127 15.06 272.9 15.06C273.567 15.06 274.193 15.1933 274.78 15.46C275.393 15.7 275.927 16.18 276.38 16.9C276.833 17.5933 277.18 18.5933 277.42 19.9C277.687 21.2067 277.82 22.9267 277.82 25.06C277.82 26.1267 277.913 27.1667 278.1 28.18C278.313 29.1667 278.66 29.9933 279.14 30.66C279.62 31.3 280.3 31.62 281.18 31.62C282.7 31.62 284.06 31.34 285.26 30.78C286.46 30.22 287.513 29.5667 288.42 28.82C289.327 28.0733 290.087 27.42 290.7 26.86C291.073 26.4867 291.393 26.1933 291.66 25.98C291.953 25.7667 292.193 25.66 292.38 25.66C292.94 25.66 293.34 25.8067 293.58 26.1C293.847 26.3933 293.98 26.7933 293.98 27.3C293.98 27.5667 293.753 28.06 293.3 28.78C292.847 29.5 292.207 30.3267 291.38 31.26C290.58 32.1667 289.66 33.0467 288.62 33.9C287.58 34.7533 286.46 35.46 285.26 36.02C284.06 36.58 282.833 36.86 281.58 36.86C279.473 36.86 277.727 36.4867 276.34 35.74C274.98 34.9667 273.967 33.6867 273.3 31.9C272.633 30.0867 272.3 27.62 272.3 24.5C272.3 24.42 272.3 24.2867 272.3 24.1C272.3 23.2733 272.287 22.54 272.26 21.9C272.26 21.26 272.22 20.74 272.14 20.34C271.687 21.1667 271.14 22.1533 270.5 23.3C269.887 24.4467 269.22 25.6733 268.5 26.98C267.78 28.26 267.033 29.5267 266.26 30.78C265.487 32.0067 264.713 33.1267 263.94 34.14C263.193 35.1533 262.473 35.9667 261.78 36.58C261.087 37.1933 260.46 37.5 259.9 37.5ZM319.794 17.34C319.794 17.66 319.687 17.94 319.474 18.18C319.26 18.42 318.994 18.6067 318.674 18.74C318.22 18.9267 317.434 19.1667 316.314 19.46C315.194 19.7533 313.834 20.0867 312.234 20.46C310.66 20.8333 308.967 21.22 307.154 21.62C305.34 21.9933 303.527 22.3533 301.714 22.7C301.02 25.26 300.314 27.9 299.594 30.62C298.874 33.3133 298.154 35.9667 297.434 38.58C297.167 39.5133 296.847 40.22 296.474 40.7C296.1 41.2067 295.46 41.46 294.554 41.46C293.567 41.46 292.9 41.14 292.554 40.5C292.234 39.8867 292.194 39.0467 292.434 37.98C293.127 35.0733 293.767 32.3667 294.354 29.86C294.967 27.3533 295.46 25.3267 295.834 23.78C294.234 24.0467 292.834 24.26 291.634 24.42C290.434 24.5533 289.58 24.6067 289.074 24.58C288.514 24.5267 288.047 24.3 287.674 23.9C287.3 23.5 287.127 23.0067 287.154 22.42C287.207 21.8867 287.447 21.4333 287.874 21.06C288.3 20.66 288.807 20.42 289.394 20.34C290.22 20.26 291.287 20.14 292.594 19.98C293.9 19.82 295.34 19.6333 296.914 19.42C297.26 18.06 297.66 16.66 298.114 15.22C298.567 13.7533 299.034 12.3533 299.514 11.02C300.02 9.66 300.5 8.47333 300.954 7.46C301.407 6.44667 301.82 5.71333 302.194 5.26C302.487 4.91333 302.847 4.64666 303.274 4.46C303.727 4.27333 304.167 4.18 304.594 4.18C305.154 4.18 305.607 4.38 305.954 4.78C306.3 5.18 306.474 5.64667 306.474 6.18C306.474 6.39333 306.46 6.62 306.434 6.86C306.407 7.07333 306.354 7.28667 306.274 7.5C305.767 8.83333 305.22 10.4467 304.634 12.34C304.074 14.2333 303.487 16.3133 302.874 18.58C304.874 18.2867 306.834 17.9933 308.754 17.7C310.7 17.38 312.46 17.0867 314.034 16.82C315.634 16.5267 316.914 16.2733 317.874 16.06C318.407 15.8733 318.86 15.9133 319.234 16.18C319.607 16.42 319.794 16.8067 319.794 17.34ZM332.941 20.18C332.941 21.9133 331.954 23.6333 329.981 25.34C328.034 27.02 325.008 28.5133 320.901 29.82C320.901 29.8467 320.901 29.8867 320.901 29.94C320.901 30.82 321.008 31.5267 321.221 32.06C321.434 32.5667 321.901 32.82 322.621 32.82C323.688 32.82 324.874 32.5 326.181 31.86C327.514 31.1933 328.888 30.3533 330.301 29.34C331.741 28.3 333.141 27.2067 334.501 26.06C335.861 24.9133 337.114 23.8333 338.261 22.82C339.434 21.78 340.421 20.94 341.221 20.3C342.048 19.6333 342.594 19.3 342.861 19.3C343.421 19.3 343.888 19.5133 344.261 19.94C344.661 20.3667 344.861 21.0067 344.861 21.86C344.861 22.34 344.834 22.9133 344.781 23.58C345.954 21.5533 347.314 19.8867 348.861 18.58C350.408 17.2467 351.928 16.26 353.421 15.62C354.941 14.9533 356.234 14.62 357.301 14.62C358.501 14.62 359.314 14.86 359.741 15.34C360.168 15.7933 360.381 16.2733 360.381 16.78C360.381 17.0733 360.314 17.3667 360.181 17.66C360.074 17.9267 359.781 18.22 359.301 18.54C358.848 18.86 358.088 19.2333 357.021 19.66C355.608 20.1933 354.261 20.82 352.981 21.54C351.728 22.26 350.568 23.2467 349.501 24.5C348.461 25.7267 347.514 27.38 346.661 29.46C345.834 31.5133 345.141 34.1533 344.581 37.38C344.394 38.2867 344.101 38.9 343.701 39.22C343.301 39.5667 342.834 39.74 342.301 39.74C342.248 39.74 342.154 39.74 342.021 39.74C341.781 39.7667 341.528 39.74 341.261 39.66C341.021 39.6067 340.781 39.38 340.541 38.98C340.328 38.6067 340.154 37.9533 340.021 37.02C339.888 36.0867 339.821 34.7533 339.821 33.02C339.821 31.98 339.861 30.8867 339.941 29.74C340.048 28.5667 340.181 27.3533 340.341 26.1C338.981 27.4333 337.528 28.78 335.981 30.14C334.434 31.5 332.834 32.7533 331.181 33.9C329.554 35.02 327.954 35.9267 326.381 36.62C324.834 37.3133 323.394 37.66 322.061 37.66C320.274 37.66 318.808 37.0867 317.661 35.94C316.541 34.7667 315.981 32.9667 315.981 30.54C315.981 28.14 316.301 25.9667 316.941 24.02C317.608 22.0467 318.461 20.3533 319.501 18.94C320.541 17.5267 321.648 16.4467 322.821 15.7C324.021 14.9267 325.141 14.54 326.181 14.54C328.394 14.54 330.074 15.0733 331.221 16.14C332.368 17.18 332.941 18.5267 332.941 20.18ZM321.421 26.26C322.114 25.9133 322.848 25.5133 323.621 25.06C324.421 24.58 325.168 24.0867 325.861 23.58C326.554 23.0467 327.114 22.5267 327.541 22.02C327.994 21.5133 328.221 21.0333 328.221 20.58C328.221 19.8333 328.008 19.38 327.581 19.22C327.181 19.0333 326.634 18.94 325.941 18.94C325.221 18.94 324.568 19.3267 323.981 20.1C323.394 20.8467 322.888 21.78 322.461 22.9C322.034 24.02 321.688 25.14 321.421 26.26ZM397.688 30.34C398.515 30.34 399.102 30.5667 399.448 31.02C399.795 31.4467 399.968 31.9 399.968 32.38C399.968 33.0467 399.635 33.7533 398.968 34.5C398.302 35.2467 397.435 35.94 396.368 36.58C395.328 37.1933 394.208 37.7 393.008 38.1C391.808 38.5 390.662 38.7 389.568 38.7C387.942 38.7 386.382 38.26 384.888 37.38C383.422 36.4733 382.222 35.2067 381.288 33.58C380.382 31.9533 379.928 30.02 379.928 27.78C379.928 25.94 380.275 24.1133 380.968 22.3C381.688 20.4867 382.635 18.74 383.808 17.06C385.008 15.38 386.315 13.82 387.728 12.38C389.168 10.94 390.608 9.68666 392.048 8.62C393.515 7.55333 394.862 6.72667 396.088 6.14C397.315 5.52667 398.302 5.22 399.048 5.22C399.982 5.22 400.675 5.46 401.128 5.94C401.608 6.39333 401.848 7.03333 401.848 7.86C401.848 8.52667 401.715 9.04667 401.448 9.42C401.208 9.76667 400.822 10.0733 400.288 10.34C398.582 11.22 396.848 12.2867 395.088 13.54C393.355 14.7933 391.768 16.18 390.328 17.7C388.888 19.1933 387.728 20.7667 386.848 22.42C385.968 24.0733 385.528 25.7533 385.528 27.46C385.528 29.3267 385.902 30.74 386.648 31.7C387.395 32.66 388.408 33.14 389.688 33.14C390.328 33.14 391.022 33.0067 391.768 32.74C392.515 32.4467 393.248 32.1133 393.968 31.74C394.715 31.3667 395.408 31.0467 396.048 30.78C396.715 30.4867 397.262 30.34 397.688 30.34Z" fill="#333333" fill-opacity="0.4"/>
</svg>
