<svg width="51" height="51" viewBox="0 0 51 51" fill="none" xmlns="http://www.w3.org/2000/svg">
<g clip-path="url(#clip0_124_61)">
<path d="M19.9668 30.7247L48.7014 2.20312" stroke="white" stroke-width="4" stroke-linecap="round" stroke-linejoin="round"/>
<path d="M48.701 18.5027V2.20312H32.2812" stroke="white" stroke-width="4" stroke-linecap="round" stroke-linejoin="round"/>
<path d="M37.5647 24.9348C38.8359 28.7814 38.7934 32.9468 37.444 36.7663C36.0946 40.5857 33.5161 43.839 30.1199 46.0071C26.7238 48.1751 22.7057 49.133 18.707 48.7277C14.7082 48.3225 10.9593 46.5776 8.05831 43.7713C5.15736 40.9651 3.27164 37.2594 2.70206 33.2455C2.13249 29.2316 2.91189 25.1409 4.9159 21.6261C6.9199 18.1114 10.033 15.3752 13.7584 13.8542C17.4838 12.3332 21.6068 12.1151 25.4695 13.2346" stroke="white" stroke-width="4" stroke-linecap="round" stroke-linejoin="round"/>
</g>
<defs>
<clipPath id="clip0_124_61">
<rect width="49.2593" height="49.7" fill="white" transform="translate(0.981445 0.649902)"/>
</clipPath>
</defs>
</svg>
