<svg width="50" height="51" viewBox="0 0 50 51" fill="none" xmlns="http://www.w3.org/2000/svg">
<path d="M40.2817 33.1254L47.0417 26.3654C47.6158 25.7911 47.9382 25.0122 47.9382 24.2002C47.9382 23.3881 47.6158 22.6094 47.0417 22.035L42.7317 17.7353C42.2442 18.8919 41.48 19.9109 40.5061 20.7026C39.5322 21.4944 38.3787 22.0346 37.1469 22.2755C35.9152 22.5167 34.643 22.4513 33.4425 22.0851C32.242 21.7188 31.1499 21.0632 30.2624 20.1757C29.3751 19.2882 28.7193 18.1962 28.3533 16.9957C27.987 15.7952 27.9215 14.5231 28.1626 13.2914C28.4037 12.0596 28.9439 10.9061 29.7357 9.9322C30.5274 8.95833 31.5464 8.19405 32.703 7.70662L28.4033 3.39667C27.829 2.82253 27.0501 2.5 26.2381 2.5C25.4259 2.5 24.647 2.82253 24.0729 3.39667L17.3129 10.1566C17.3129 8.64236 16.8638 7.16209 16.0226 5.90304C15.1813 4.64396 13.9855 3.66265 12.5865 3.08317C11.1875 2.50368 9.64813 2.35206 8.16296 2.64748C6.67779 2.9429 5.31357 3.67209 4.24284 4.74284C3.17208 5.81357 2.4429 7.17779 2.14748 8.66296C1.85206 10.1481 2.00368 11.6875 2.58317 13.0865C3.16265 14.4855 4.14398 15.6813 5.40303 16.5226C6.66209 17.3638 8.14236 17.8129 9.65662 17.8129L2.89666 24.5728C2.32253 25.1472 2 25.9258 2 26.738C2 27.55 2.32253 28.3289 2.89666 28.9032L7.20662 33.203C7.69405 32.0464 8.45833 31.0274 9.4322 30.2356C10.4061 29.4438 11.5596 28.9036 12.7914 28.6627C14.0231 28.4216 15.2952 28.4869 16.4957 28.8532C17.6962 29.2193 18.7882 29.875 19.6757 30.7626C20.5632 31.6501 21.2189 32.7422 21.5851 33.9427C21.9512 35.1429 22.0167 36.4151 21.7756 37.6468C21.5345 38.8786 20.9943 40.0321 20.2026 41.006C19.4109 41.9799 18.3919 42.7443 17.2353 43.2316L21.5351 47.5334C22.1092 48.1075 22.8881 48.4301 23.7003 48.4301C24.5123 48.4301 25.2912 48.1075 25.8655 47.5334L32.6255 40.7816C32.6255 42.2959 33.0744 43.7761 33.9156 45.0352C34.757 46.2943 35.9528 47.2756 37.3517 47.855C38.7507 48.4346 40.2901 48.5861 41.7752 48.2907C43.2605 47.9952 44.6247 47.2662 45.6954 46.1953C46.7662 45.1247 47.4953 43.7604 47.7907 42.2753C48.0862 40.7902 47.9345 39.2508 47.3551 37.8516C46.7756 36.4527 45.7942 35.2569 44.5351 34.4157C43.2762 33.5743 41.7958 33.1254 40.2817 33.1254Z" stroke="white" stroke-width="4" stroke-linecap="round" stroke-linejoin="round"/>
</svg>
