<svg width="50" height="50" viewBox="0 0 50 50" fill="none" xmlns="http://www.w3.org/2000/svg">
<path d="M47.9375 43.8854C47.9375 46.1313 46.1 47.9688 43.8542 47.9688H6.08333C3.8375 47.9688 2 46.1313 2 43.8854V6.11458C2 3.86875 3.8375 2.03125 6.08333 2.03125H43.8542C46.1 2.03125 47.9375 3.86875 47.9375 6.11458V43.8854Z" stroke="white" stroke-width="4" stroke-miterlimit="10" stroke-linecap="round" stroke-linejoin="round"/>
<path d="M16.2109 38.1685C16.2109 39.3935 15.3943 40.2102 14.1693 40.2102H12.1276C10.9026 40.2102 10.0859 39.3935 10.0859 38.1685V32.4518C10.0859 31.2268 10.9026 30.4102 12.1276 30.4102H14.1693C15.3943 30.4102 16.2109 31.2268 16.2109 32.4518V38.1685Z" stroke="white" stroke-width="4" stroke-miterlimit="10" stroke-linecap="round" stroke-linejoin="round"/>
<path d="M28.4609 38.1685C28.4609 39.3935 27.6443 40.2101 26.4193 40.2101H24.3776C23.1526 40.2101 22.3359 39.3935 22.3359 38.1685V14.0768C22.3359 12.8518 23.1526 12.0352 24.3776 12.0352H26.4193C27.6443 12.0352 28.4609 12.8518 28.4609 14.0768V38.1685Z" stroke="white" stroke-width="4" stroke-miterlimit="10" stroke-linecap="round" stroke-linejoin="round"/>
<path d="M40.7109 38.1687C40.7109 39.3937 39.8943 40.2103 38.6693 40.2103H36.6276C35.4026 40.2103 34.5859 39.3937 34.5859 38.1687V24.2853C34.5859 23.0603 35.4026 22.2437 36.6276 22.2437H38.6693C39.8943 22.2437 40.7109 23.0603 40.7109 24.2853V38.1687Z" stroke="white" stroke-width="4" stroke-miterlimit="10" stroke-linecap="round" stroke-linejoin="round"/>
</svg>
