<svg width="49" height="49" viewBox="0 0 49 49" fill="none" xmlns="http://www.w3.org/2000/svg">
<g clip-path="url(#clip0_151_256)">
<path d="M32.1562 34.1978C32.1563 35.01 32.4789 35.7889 33.0532 36.3633C33.6276 36.9376 34.4065 37.2603 35.2188 37.2603C36.031 37.2603 36.8099 36.9376 37.3843 36.3633C37.9586 35.7889 38.2813 35.01 38.2813 34.1978C38.2813 33.3855 37.9586 32.6066 37.3843 32.0322C36.8099 31.4579 36.031 31.1353 35.2188 31.1353C34.4065 31.1353 33.6276 31.4579 33.0532 32.0322C32.4789 32.6066 32.1563 33.3855 32.1562 34.1978Z" stroke="white" stroke-width="4" stroke-linecap="round" stroke-linejoin="round"/>
<path d="M37.8202 22.3503L38.7226 25.3169C38.8715 25.8092 39.2019 26.2267 39.6468 26.4848C40.0918 26.7429 40.6182 26.8224 41.1195 26.7072L44.1248 26.011C44.6945 25.8827 45.2902 25.94 45.8249 26.1748C46.3595 26.4095 46.805 26.8093 47.096 27.3155C47.387 27.8217 47.5082 28.4078 47.442 28.988C47.3758 29.5681 47.1256 30.1118 46.728 30.5394L44.623 32.8077C44.2717 33.1855 44.0764 33.6822 44.0764 34.1981C44.0764 34.714 44.2717 35.2107 44.623 35.5885L46.728 37.8568C47.1256 38.2844 47.3758 38.8281 47.442 39.4082C47.5082 39.9884 47.387 40.5745 47.096 41.0807C46.805 41.587 46.3595 41.9867 45.8249 42.2214C45.2902 42.4562 44.6945 42.5136 44.1248 42.3852L41.1195 41.689C40.6182 41.5738 40.0918 41.6533 39.6468 41.9114C39.2019 42.1695 38.8715 42.587 38.7226 43.0794L37.8202 46.0459C37.6525 46.6054 37.3088 47.0959 36.8403 47.4446C36.3717 47.7933 35.8032 47.9817 35.2191 47.9817C34.635 47.9817 34.0665 47.7933 33.5979 47.4446C33.1293 47.0959 32.7857 46.6054 32.618 46.0459L31.7156 43.0794C31.5667 42.587 31.2363 42.1695 30.7914 41.9114C30.3464 41.6533 29.82 41.5738 29.3187 41.689L26.3133 42.3852C25.7437 42.5136 25.148 42.4562 24.6133 42.2214C24.0787 41.9867 23.6332 41.587 23.3422 41.0807C23.0512 40.5745 22.9299 39.9884 22.9962 39.4082C23.0624 38.8281 23.3126 38.2844 23.7102 37.8568L25.8152 35.5885C26.1665 35.2107 26.3618 34.714 26.3618 34.1981C26.3618 33.6822 26.1665 33.1855 25.8152 32.8077L23.7102 30.5394C23.3126 30.1118 23.0624 29.5681 22.9962 28.988C22.9299 28.4078 23.0512 27.8217 23.3422 27.3155C23.6332 26.8093 24.0787 26.4095 24.6133 26.1748C25.148 25.94 25.7437 25.8827 26.3133 26.011L29.3187 26.7072C29.82 26.8224 30.3464 26.7429 30.7914 26.4848C31.2363 26.2267 31.5667 25.8092 31.7156 25.3169L32.618 22.3503C32.7857 21.7908 33.1293 21.3003 33.5979 20.9516C34.0665 20.6029 34.635 20.4146 35.2191 20.4146C35.8032 20.4146 36.3717 20.6029 36.8403 20.9516C37.3088 21.3003 37.6525 21.7908 37.8202 22.3503Z" stroke="white" stroke-width="4" stroke-linecap="round" stroke-linejoin="round"/>
<path d="M6.125 25.0103V5.104C6.125 4.29178 6.44766 3.51282 7.02199 2.93849C7.59632 2.36416 8.37527 2.0415 9.1875 2.0415H39.8125C40.6247 2.0415 41.4037 2.36416 41.978 2.93849C42.5523 3.51282 42.875 4.29178 42.875 5.104V17.354" stroke="white" stroke-width="4" stroke-linecap="round" stroke-linejoin="round"/>
<path d="M16.8438 25.0103H1.53125C1.53125 27.0408 2.33789 28.9882 3.77371 30.424C5.20954 31.8599 7.15694 32.6665 9.1875 32.6665H16.8438" stroke="white" stroke-width="4" stroke-linecap="round" stroke-linejoin="round"/>
</g>
<defs>
<clipPath id="clip0_151_256">
<rect width="49" height="49" fill="white"/>
</clipPath>
</defs>
</svg>
